<svg id="svg" version="1.1" xmlns="http://www.w3.org/2000/svg" xmlns:xlink="http://www.w3.org/1999/xlink" width="400" height="400" viewBox="0, 0, 400,400"><g id="svgg"><path id="path0" d="M30.400 261.908 L 30.400 287.015 34.307 290.908 L 38.214 294.800 41.507 294.800 L 44.800 294.800 44.800 265.800 L 44.800 236.800 37.600 236.800 L 30.400 236.800 30.400 261.908 M85.200 258.400 L 85.200 280.000 67.200 280.000 L 49.200 280.000 49.200 287.400 L 49.200 294.800 74.600 294.800 L 100.000 294.800 100.000 265.800 L 100.000 236.800 92.600 236.800 L 85.200 236.800 85.200 258.400 M113.200 265.800 L 113.200 294.800 120.600 294.800 L 128.000 294.800 128.000 273.000 L 128.000 251.200 146.000 251.200 L 164.000 251.200 164.000 244.000 L 164.000 236.800 138.600 236.800 L 113.200 236.800 113.200 265.800 M168.400 265.800 L 168.400 294.800 175.600 294.800 L 182.800 294.800 182.800 269.492 L 182.800 244.184 179.092 240.492 L 175.385 236.800 171.892 236.800 L 168.400 236.800 168.400 265.800 M196.000 244.000 L 196.000 251.200 203.400 251.200 L 210.800 251.200 210.800 244.000 L 210.800 236.800 203.400 236.800 L 196.000 236.800 196.000 244.000 M224.000 255.000 L 224.000 273.200 250.200 273.200 L 276.400 273.200 276.400 276.600 L 276.400 280.000 250.200 280.000 L 224.000 280.000 224.000 287.400 L 224.000 294.800 257.600 294.800 L 291.200 294.800 291.200 276.600 L 291.200 258.400 265.000 258.400 L 238.800 258.400 238.800 254.800 L 238.800 251.200 265.000 251.200 L 291.200 251.200 291.200 244.000 L 291.200 236.800 257.600 236.800 L 224.000 236.800 224.000 255.000 M304.400 244.000 L 304.400 251.200 311.600 251.200 L 318.800 251.200 318.800 244.000 L 318.800 236.800 311.600 236.800 L 304.400 236.800 304.400 244.000 M323.200 265.800 L 323.200 294.800 330.600 294.800 L 338.000 294.800 338.000 273.000 L 338.000 251.200 354.600 251.200 L 371.200 251.200 371.200 244.000 L 371.200 236.800 347.200 236.800 L 323.200 236.800 323.200 265.800 M196.000 275.200 L 196.000 294.800 203.400 294.800 L 210.800 294.800 210.800 275.200 L 210.800 255.600 203.400 255.600 L 196.000 255.600 196.000 275.200 " stroke="none" fill="#f9fbfb" fill-rule="evenodd"></path><path id="path1" d="M0.000 200.000 L 0.000 400.000 200.000 400.000 L 400.000 400.000 400.000 200.000 L 400.000 0.000 200.000 0.000 L 0.000 0.000 0.000 200.000 M204.807 26.959 C 206.657 32.327,206.154 32.086,210.770 29.815 C 215.663 27.407,215.556 27.296,213.184 32.317 L 211.238 36.434 212.319 36.860 C 212.914 37.095,214.607 37.703,216.082 38.213 C 220.563 39.762,220.568 39.713,215.744 41.409 C 213.355 42.250,211.352 42.969,211.294 43.008 C 211.235 43.047,212.081 44.945,213.174 47.226 C 215.592 52.271,215.749 52.115,210.680 49.693 L 206.511 47.702 204.982 52.051 C 203.128 57.324,203.313 57.308,201.603 52.350 C 199.906 47.433,200.124 47.528,195.652 49.774 C 190.874 52.173,190.942 52.242,193.267 47.376 C 194.377 45.052,195.221 43.101,195.142 43.038 C 195.064 42.976,193.065 42.243,190.700 41.410 C 188.335 40.576,186.400 39.848,186.400 39.791 C 186.400 39.734,188.335 39.007,190.700 38.175 C 193.065 37.343,195.072 36.606,195.161 36.537 C 195.249 36.468,194.402 34.519,193.277 32.206 C 192.152 29.893,191.381 28.000,191.563 28.000 C 191.744 28.000,193.626 28.821,195.745 29.825 C 200.347 32.005,199.893 32.205,201.608 27.233 C 203.302 22.325,203.212 22.333,204.807 26.959 M210.800 145.409 L 210.800 227.218 203.500 227.109 L 196.200 227.000 196.099 145.300 L 195.998 63.600 203.399 63.600 L 210.800 63.600 210.800 145.409 M45.200 265.600 L 45.200 294.800 41.507 294.800 L 37.814 294.800 33.907 290.908 L 30.000 287.015 30.000 261.708 L 30.000 236.400 37.600 236.400 L 45.200 236.400 45.200 265.600 M100.303 265.700 L 100.405 294.800 74.803 294.800 L 49.200 294.800 49.200 287.400 L 49.200 280.000 67.200 280.000 L 85.200 280.000 85.200 258.191 L 85.200 236.382 92.700 236.491 L 100.200 236.600 100.303 265.700 M164.000 244.000 L 164.000 251.600 146.000 251.600 L 128.000 251.600 128.000 273.200 L 128.000 294.800 120.400 294.800 L 112.800 294.800 112.800 265.867 C 112.800 249.953,112.920 236.813,113.067 236.667 C 113.213 236.520,124.733 236.400,138.667 236.400 L 164.000 236.400 164.000 244.000 M179.093 240.493 L 183.200 244.586 183.200 269.693 L 183.200 294.800 175.600 294.800 L 168.000 294.800 168.000 265.867 C 168.000 249.953,168.120 236.813,168.267 236.667 C 168.413 236.520,169.985 236.400,171.760 236.400 L 174.986 236.400 179.093 240.493 M210.800 244.000 L 210.800 251.600 203.400 251.600 L 196.000 251.600 196.000 244.000 L 196.000 236.400 203.400 236.400 L 210.800 236.400 210.800 244.000 M291.200 244.000 L 291.200 251.600 265.000 251.600 L 238.800 251.600 238.800 255.000 L 238.800 258.400 265.000 258.400 L 291.200 258.400 291.200 276.600 L 291.200 294.800 257.400 294.800 L 223.600 294.800 223.600 287.400 L 223.600 280.000 250.000 280.000 L 276.400 280.000 276.400 276.600 L 276.400 273.200 250.000 273.200 L 223.600 273.200 223.600 255.067 C 223.600 245.093,223.720 236.813,223.867 236.667 C 224.013 236.520,239.223 236.400,257.667 236.400 L 291.200 236.400 291.200 244.000 M319.000 244.000 L 319.000 251.400 311.500 251.509 L 304.000 251.618 304.000 244.000 L 304.000 236.382 311.500 236.491 L 319.000 236.600 319.000 244.000 M371.600 244.000 L 371.600 251.600 354.800 251.600 L 338.000 251.600 338.000 273.200 L 338.000 294.800 330.600 294.800 L 323.200 294.800 323.200 265.600 L 323.200 236.400 347.400 236.400 L 371.600 236.400 371.600 244.000 M210.800 275.200 L 210.800 294.800 203.400 294.800 L 196.000 294.800 196.000 275.200 L 196.000 255.600 203.400 255.600 L 210.800 255.600 210.800 275.200 M54.400 314.724 C 54.400 320.934,54.668 321.756,56.620 321.534 L 57.800 321.400 58.000 315.400 L 58.200 309.400 59.727 309.274 L 61.255 309.148 61.127 315.764 C 60.973 323.771,60.824 324.060,56.708 324.319 C 52.138 324.607,51.206 322.991,51.202 314.767 C 51.200 309.179,51.193 309.200,53.067 309.200 L 54.400 309.200 54.400 314.724 M68.000 315.400 L 68.000 321.600 70.200 321.600 L 72.400 321.600 72.400 323.000 L 72.400 324.400 68.600 324.400 L 64.800 324.400 64.800 316.800 L 64.800 309.200 66.400 309.200 L 68.000 309.200 68.000 315.400 M82.689 309.989 C 83.823 310.680,84.814 312.520,84.319 313.014 C 83.586 313.748,81.660 313.618,81.406 312.819 C 81.188 312.133,80.871 311.980,79.866 312.077 C 77.836 312.274,78.202 313.514,80.800 315.239 C 85.113 318.103,85.954 320.526,83.491 322.989 C 80.876 325.604,75.200 324.155,75.200 320.872 C 75.200 319.911,77.644 319.131,77.933 320.000 C 78.531 321.794,80.516 322.432,81.355 321.100 C 81.925 320.195,81.372 319.270,79.623 318.200 C 78.903 317.760,77.663 316.833,76.866 316.139 C 72.722 312.530,77.895 307.066,82.689 309.989 M96.411 316.300 C 97.343 320.205,98.192 323.625,98.296 323.900 C 98.428 324.249,97.998 324.400,96.878 324.400 C 95.314 324.400,95.263 324.356,95.000 322.800 L 94.730 321.200 92.835 321.200 C 90.979 321.200,90.934 321.230,90.571 322.700 C 90.240 324.039,87.200 325.407,87.200 324.217 C 87.200 324.089,88.032 320.659,89.050 316.593 L 90.899 309.200 92.807 309.200 L 94.715 309.200 96.411 316.300 M106.132 312.860 L 107.800 316.521 108.000 312.960 L 108.200 309.400 109.700 309.276 L 111.200 309.152 111.200 316.776 L 111.200 324.400 109.673 324.400 L 108.145 324.400 106.173 319.934 L 104.200 315.468 104.087 319.934 L 103.974 324.400 102.587 324.400 L 101.200 324.400 101.200 316.800 L 101.200 309.200 102.832 309.200 L 104.464 309.200 106.132 312.860 M126.410 313.272 L 128.200 317.344 128.314 313.272 L 128.428 309.200 129.814 309.200 L 131.200 309.200 131.200 316.800 L 131.200 324.400 129.773 324.400 C 128.357 324.400,128.333 324.371,126.407 320.300 L 124.467 316.200 124.334 320.200 L 124.200 324.200 122.700 324.324 L 121.200 324.448 121.200 316.824 L 121.200 309.200 122.910 309.200 L 124.620 309.200 126.410 313.272 M141.968 310.700 C 142.501 312.704,145.200 324.030,145.200 324.264 C 145.200 325.439,142.179 324.002,141.868 322.680 C 141.325 320.367,138.030 320.532,137.473 322.900 C 137.053 324.686,134.400 325.275,134.400 323.582 C 134.400 322.727,137.500 310.086,137.847 309.523 C 138.563 308.366,141.576 309.226,141.968 310.700 M156.000 310.600 C 156.000 311.965,155.960 312.000,154.410 312.000 L 152.821 312.000 152.710 318.100 L 152.600 324.200 151.100 324.324 L 149.600 324.448 149.600 318.224 L 149.600 312.000 148.000 312.000 C 146.438 312.000,146.400 311.967,146.400 310.600 L 146.400 309.200 151.200 309.200 L 156.000 309.200 156.000 310.600 M162.000 316.800 L 162.000 324.400 160.400 324.400 L 158.800 324.400 158.800 316.800 L 158.800 309.200 160.400 309.200 L 162.000 309.200 162.000 316.800 M173.592 310.192 C 176.066 312.432,175.759 321.922,173.153 323.748 C 171.668 324.788,168.299 324.619,166.922 323.436 C 165.616 322.313,164.989 314.042,166.021 311.549 C 166.986 309.219,171.602 308.392,173.592 310.192 M183.590 313.300 L 185.538 317.400 185.569 313.300 L 185.600 309.200 187.000 309.200 L 188.400 309.200 188.400 316.800 L 188.400 324.400 186.871 324.400 L 185.341 324.400 183.371 319.900 L 181.400 315.400 181.287 319.900 L 181.174 324.400 179.787 324.400 L 178.400 324.400 178.400 316.800 L 178.400 309.200 180.021 309.200 L 181.641 309.200 183.590 313.300 M198.992 310.100 C 199.106 310.595,199.826 313.610,200.593 316.800 C 201.360 319.990,202.083 323.005,202.201 323.500 C 202.395 324.317,202.270 324.400,200.843 324.400 C 199.317 324.400,199.262 324.352,198.997 322.780 L 198.723 321.159 196.874 321.280 C 195.100 321.395,195.012 321.460,194.673 322.900 C 194.338 324.325,194.241 324.400,192.717 324.400 C 191.604 324.400,191.170 324.247,191.298 323.900 C 191.398 323.625,192.267 320.205,193.229 316.300 L 194.977 309.200 196.881 309.200 C 198.527 309.200,198.813 309.322,198.992 310.100 M208.400 315.400 L 208.400 321.600 210.600 321.600 L 212.800 321.600 212.800 323.000 L 212.800 324.400 209.000 324.400 L 205.200 324.400 205.200 316.800 L 205.200 309.200 206.800 309.200 L 208.400 309.200 208.400 315.400 M225.200 316.800 L 225.200 324.400 223.600 324.400 L 222.000 324.400 222.000 316.800 L 222.000 309.200 223.600 309.200 L 225.200 309.200 225.200 316.800 M233.990 313.300 L 235.938 317.400 235.969 313.300 L 236.000 309.200 237.400 309.200 L 238.800 309.200 238.800 316.800 L 238.800 324.400 237.271 324.400 L 235.741 324.400 233.771 319.900 L 231.800 315.400 231.687 319.900 L 231.574 324.400 230.187 324.400 L 228.800 324.400 228.800 316.800 L 228.800 309.200 230.421 309.200 L 232.041 309.200 233.990 313.300 M248.974 309.590 C 250.078 310.010,251.768 312.397,251.290 312.861 C 250.462 313.666,248.856 313.652,248.419 312.835 C 248.116 312.270,247.579 312.000,246.759 312.000 C 244.586 312.000,245.300 313.862,248.098 315.494 C 253.492 318.638,252.570 324.400,246.674 324.400 C 242.972 324.400,240.342 320.284,243.696 319.739 C 244.941 319.537,245.119 319.622,245.347 320.530 C 245.863 322.587,248.570 322.159,248.320 320.060 C 248.232 319.318,247.624 318.713,246.025 317.777 C 239.794 314.126,242.337 307.067,248.974 309.590 M264.000 310.600 C 264.000 311.967,263.962 312.000,262.400 312.000 L 260.800 312.000 260.800 318.200 L 260.800 324.400 259.200 324.400 L 257.600 324.400 257.600 318.200 L 257.600 312.000 256.000 312.000 C 254.438 312.000,254.400 311.967,254.400 310.600 L 254.400 309.200 259.200 309.200 L 264.000 309.200 264.000 310.600 M270.200 316.800 L 270.200 324.200 268.700 324.324 L 267.200 324.448 267.200 316.800 L 267.200 309.152 268.700 309.276 L 270.200 309.400 270.200 316.800 M282.800 310.600 C 282.800 311.967,282.762 312.000,281.200 312.000 L 279.600 312.000 279.600 318.200 L 279.600 324.400 278.000 324.400 L 276.400 324.400 276.400 318.200 L 276.400 312.000 274.800 312.000 C 273.238 312.000,273.200 311.967,273.200 310.600 L 273.200 309.200 278.000 309.200 L 282.800 309.200 282.800 310.600 M289.200 315.400 L 289.400 321.400 290.800 321.400 L 292.200 321.400 292.400 315.400 L 292.600 309.400 294.100 309.276 L 295.600 309.152 295.600 315.554 C 295.600 323.726,295.337 324.200,290.800 324.200 C 286.263 324.200,286.000 323.726,286.000 315.554 L 286.000 309.152 287.500 309.276 L 289.000 309.400 289.200 315.400 M308.400 310.600 C 308.400 311.967,308.362 312.000,306.800 312.000 L 305.200 312.000 305.200 318.200 L 305.200 324.400 303.600 324.400 L 302.000 324.400 302.000 318.200 L 302.000 312.000 300.400 312.000 C 298.838 312.000,298.800 311.967,298.800 310.600 L 298.800 309.200 303.600 309.200 L 308.400 309.200 308.400 310.600 M319.200 310.600 L 319.200 312.000 316.800 312.000 L 314.400 312.000 314.400 313.578 L 314.400 315.156 316.300 315.278 C 318.117 315.395,318.200 315.452,318.200 316.600 C 318.200 317.748,318.117 317.805,316.300 317.922 L 314.400 318.044 314.400 319.822 L 314.400 321.600 317.000 321.600 L 319.600 321.600 319.600 323.000 L 319.600 324.400 315.400 324.400 L 311.200 324.400 311.200 316.800 L 311.200 309.200 315.200 309.200 L 319.200 309.200 319.200 310.600 M336.342 309.770 C 339.449 311.377,339.299 322.822,336.155 324.017 C 331.375 325.834,328.800 323.308,328.800 316.800 C 328.800 310.217,331.800 307.421,336.342 309.770 M349.525 310.700 L 349.651 312.000 347.225 312.000 L 344.800 312.000 344.800 313.600 L 344.800 315.200 346.600 315.200 C 348.390 315.200,348.400 315.207,348.400 316.600 C 348.400 317.993,348.390 318.000,346.600 318.000 L 344.800 318.000 344.800 321.224 L 344.800 324.448 343.300 324.324 L 341.800 324.200 341.690 317.214 C 341.552 308.435,341.194 309.145,345.693 309.285 L 349.400 309.400 349.525 310.700 M168.973 312.527 C 168.861 312.817,168.822 314.932,168.885 317.227 L 169.000 321.400 170.157 321.532 C 170.814 321.607,171.459 321.434,171.650 321.132 C 172.185 320.288,172.076 313.036,171.520 312.480 C 170.878 311.838,169.225 311.868,168.973 312.527 M332.497 312.463 C 331.925 313.035,331.802 320.268,332.350 321.132 C 332.541 321.434,333.186 321.607,333.843 321.532 L 335.000 321.400 335.000 316.800 L 335.000 312.200 333.997 312.083 C 333.446 312.018,332.771 312.189,332.497 312.463 M92.229 315.470 C 92.079 316.312,91.865 317.315,91.752 317.700 C 91.589 318.255,91.791 318.400,92.725 318.400 L 93.903 318.400 93.509 316.500 C 92.983 313.959,92.558 313.617,92.229 315.470 M139.487 314.400 C 138.416 317.398,138.455 318.400,139.643 318.400 C 140.972 318.400,140.960 318.449,140.243 315.800 C 139.934 314.659,139.609 314.058,139.487 314.400 M196.729 314.219 C 196.609 314.428,196.387 315.140,196.236 315.800 C 196.085 316.460,195.868 317.315,195.754 317.700 C 195.588 318.260,195.792 318.400,196.773 318.400 C 197.448 318.400,197.992 318.355,197.983 318.300 C 197.677 316.496,196.891 313.936,196.729 314.219 M83.510 334.002 C 84.586 334.658,85.933 336.673,85.511 336.996 C 84.372 337.869,82.855 337.839,82.444 336.936 C 81.851 335.636,79.867 335.733,79.676 337.072 C 79.578 337.757,80.050 338.259,81.876 339.412 C 86.955 342.620,86.956 347.659,81.878 348.612 C 78.080 349.324,74.115 344.607,77.851 343.821 C 78.956 343.589,79.132 343.677,79.357 344.573 C 79.860 346.575,82.400 346.414,82.400 344.380 C 82.400 343.375,82.084 343.029,80.198 341.964 C 76.628 339.950,75.671 338.038,76.890 335.362 C 77.831 333.297,81.214 332.602,83.510 334.002 M97.287 334.767 C 99.072 336.765,98.853 338.400,96.800 338.400 C 95.363 338.400,95.200 338.299,95.200 337.408 C 95.200 336.071,93.341 335.520,92.538 336.617 C 91.727 337.726,91.798 344.541,92.629 345.371 C 93.810 346.553,95.060 345.997,95.264 344.199 C 95.385 343.131,95.564 342.986,96.900 342.876 L 98.400 342.752 98.400 344.370 C 98.400 348.370,93.244 350.229,90.304 347.288 C 88.788 345.773,88.195 339.422,89.267 336.200 C 90.329 333.009,94.975 332.179,97.287 334.767 M140.352 333.643 C 141.631 334.089,142.462 335.259,142.951 337.300 C 143.373 339.057,140.388 338.964,139.722 337.200 C 139.103 335.559,137.372 335.501,136.758 337.100 C 136.121 338.758,136.453 345.137,137.200 345.609 C 138.518 346.442,140.000 345.469,140.000 343.771 C 140.000 342.748,142.430 342.277,142.994 343.191 C 144.213 345.163,141.176 348.571,138.200 348.571 C 134.332 348.571,132.965 346.182,133.295 340.000 C 133.608 334.160,135.903 332.092,140.352 333.643 M240.087 334.767 C 241.872 336.765,241.653 338.400,239.600 338.400 C 238.163 338.400,238.000 338.299,238.000 337.408 C 238.000 336.233,236.361 335.602,235.395 336.404 C 233.725 337.790,234.918 346.501,236.684 345.823 C 237.004 345.700,237.419 345.600,237.607 345.600 C 237.795 345.600,238.006 345.015,238.075 344.300 C 238.290 342.065,241.200 342.086,241.200 344.322 C 241.200 349.590,232.884 350.321,231.849 345.144 C 231.442 343.108,231.609 337.505,232.123 336.000 C 233.144 333.006,237.861 332.276,240.087 334.767 M278.851 333.827 C 282.541 335.735,282.130 346.904,278.317 348.338 C 273.815 350.031,271.837 347.945,271.670 341.328 C 271.486 334.058,274.073 331.356,278.851 333.827 M302.051 333.827 C 304.401 335.042,305.437 342.937,303.699 346.390 C 302.399 348.974,298.521 349.498,296.102 347.417 C 294.605 346.130,294.372 336.382,295.800 334.795 C 297.301 333.127,299.915 332.722,302.051 333.827 M315.459 334.478 C 315.990 335.009,316.533 336.108,316.665 336.922 L 316.905 338.400 315.252 338.400 C 313.903 338.400,313.600 338.262,313.600 337.649 C 313.600 336.613,312.604 335.881,311.619 336.194 C 310.857 336.436,310.800 336.770,310.800 340.980 C 310.800 345.790,311.149 346.532,312.943 345.528 C 313.959 344.959,313.789 343.283,312.700 343.128 C 310.268 342.782,311.581 340.610,314.300 340.481 L 316.800 340.362 316.800 344.381 C 316.800 348.317,316.093 349.768,315.020 348.032 C 314.891 347.824,314.283 347.919,313.613 348.254 C 311.954 349.081,309.845 348.606,308.598 347.124 C 307.171 345.429,307.069 336.783,308.455 335.021 C 310.107 332.921,313.630 332.648,315.459 334.478 M105.109 340.900 L 105.000 348.200 103.500 348.324 L 102.000 348.448 102.000 341.024 L 102.000 333.600 103.609 333.600 L 105.218 333.600 105.109 340.900 M116.725 334.900 C 116.600 336.200,116.600 336.200,114.100 336.319 L 111.600 336.438 111.600 337.797 C 111.600 339.135,111.630 339.158,113.500 339.278 C 115.322 339.395,115.405 339.454,115.525 340.700 L 115.651 342.000 113.625 342.000 L 111.600 342.000 111.600 343.800 L 111.600 345.600 114.200 345.600 L 116.800 345.600 116.800 347.014 L 116.800 348.428 112.700 348.314 L 108.600 348.200 108.491 340.900 L 108.382 333.600 112.616 333.600 L 116.851 333.600 116.725 334.900 M125.311 337.500 L 127.140 341.400 127.170 337.500 L 127.200 333.600 128.600 333.600 L 130.000 333.600 130.000 341.000 L 130.000 348.400 128.490 348.400 L 126.980 348.400 125.190 344.325 L 123.400 340.250 123.200 344.225 L 123.000 348.200 121.500 348.324 L 120.000 348.448 120.000 341.024 L 120.000 333.600 121.741 333.600 L 123.481 333.600 125.311 337.500 M154.325 334.900 C 154.201 336.185,154.174 336.201,151.900 336.320 L 149.600 336.440 149.600 337.820 C 149.600 339.189,149.614 339.200,151.400 339.200 C 153.190 339.200,153.200 339.207,153.200 340.600 C 153.200 341.993,153.190 342.000,151.400 342.000 L 149.600 342.000 149.600 343.800 L 149.600 345.600 152.000 345.600 L 154.400 345.600 154.400 347.000 L 154.400 348.400 150.400 348.400 L 146.400 348.400 146.400 341.000 L 146.400 333.600 150.425 333.600 L 154.451 333.600 154.325 334.900 M172.325 340.569 C 174.338 348.944,174.318 348.400,172.611 348.400 C 171.380 348.400,171.185 348.253,170.888 347.100 C 170.362 345.059,167.006 344.890,166.494 346.879 C 166.151 348.212,163.200 349.222,163.200 348.006 C 163.200 347.578,166.249 335.109,166.601 334.100 C 166.708 333.793,167.522 333.600,168.712 333.600 L 170.650 333.600 172.325 340.569 M182.196 337.300 L 183.945 341.000 183.972 337.300 L 184.000 333.600 185.609 333.600 L 187.218 333.600 187.109 340.900 L 187.000 348.200 185.448 348.200 L 183.896 348.200 182.048 344.044 L 180.200 339.888 180.086 344.144 L 179.973 348.400 178.586 348.400 L 177.200 348.400 177.200 341.000 L 177.200 333.600 178.824 333.600 L 180.448 333.600 182.196 337.300 M197.600 334.111 C 199.289 334.955,199.999 336.967,199.999 340.913 C 200.000 347.030,198.682 348.528,193.487 348.317 L 190.600 348.200 190.491 340.900 L 190.382 333.600 193.491 333.606 C 195.201 333.609,197.050 333.837,197.600 334.111 M217.600 335.000 C 217.600 336.367,217.562 336.400,216.000 336.400 L 214.400 336.400 214.400 342.400 L 214.400 348.400 212.800 348.400 L 211.200 348.400 211.200 342.400 L 211.200 336.400 209.600 336.400 C 208.038 336.400,208.000 336.367,208.000 335.000 L 208.000 333.600 212.800 333.600 L 217.600 333.600 217.600 335.000 M228.400 335.000 L 228.400 336.400 226.000 336.400 L 223.600 336.400 223.600 337.800 C 223.600 339.193,223.610 339.200,225.400 339.200 C 227.190 339.200,227.200 339.207,227.200 340.600 C 227.200 341.993,227.190 342.000,225.400 342.000 L 223.600 342.000 223.600 343.800 L 223.600 345.600 226.200 345.600 L 228.800 345.600 228.800 347.000 L 228.800 348.400 224.600 348.400 L 220.400 348.400 220.400 341.000 L 220.400 333.600 224.400 333.600 L 228.400 333.600 228.400 335.000 M247.600 336.400 L 247.600 339.200 249.400 339.200 L 251.200 339.200 251.200 336.400 L 251.200 333.600 252.800 333.600 L 254.400 333.600 254.400 341.024 L 254.400 348.448 252.900 348.324 L 251.400 348.200 251.283 345.100 L 251.166 342.000 249.383 342.000 L 247.600 342.000 247.600 345.224 L 247.600 348.448 246.100 348.324 L 244.600 348.200 244.491 340.900 L 244.382 333.600 245.991 333.600 L 247.600 333.600 247.600 336.400 M263.380 337.525 L 265.000 341.250 265.114 337.425 L 265.229 333.600 266.614 333.600 L 268.000 333.600 268.000 341.000 L 268.000 348.400 266.579 348.400 C 265.171 348.400,265.142 348.365,263.210 344.300 L 261.262 340.200 261.231 344.324 L 261.200 348.448 259.700 348.324 L 258.200 348.200 258.091 340.878 L 257.982 333.555 259.871 333.678 L 261.760 333.800 263.380 337.525 M287.600 339.600 L 287.600 345.600 289.800 345.600 L 292.000 345.600 292.000 347.000 L 292.000 348.400 288.200 348.400 L 284.400 348.400 284.400 341.000 L 284.400 333.600 286.000 333.600 L 287.600 333.600 287.600 339.600 M323.498 336.327 C 324.624 339.149,324.706 339.135,325.984 335.900 C 326.873 333.651,326.927 333.600,328.446 333.600 C 330.349 333.600,330.358 333.361,328.300 337.763 C 326.835 340.897,326.572 341.870,326.400 344.800 L 326.200 348.200 324.700 348.324 L 323.200 348.448 323.200 345.564 C 323.200 342.951,323.012 342.271,321.200 338.323 C 318.803 333.100,318.836 333.527,320.845 333.677 C 322.460 333.798,322.507 333.844,323.498 336.327 M275.300 336.265 C 274.352 336.647,274.623 345.077,275.600 345.600 C 277.463 346.597,278.000 345.583,278.000 341.066 C 278.000 336.278,277.495 335.379,275.300 336.265 M298.500 336.265 C 297.552 336.647,297.823 345.077,298.800 345.600 C 300.663 346.597,301.200 345.583,301.200 341.066 C 301.200 336.278,300.695 335.379,298.500 336.265 M193.600 341.000 L 193.600 345.600 194.571 345.600 C 196.326 345.600,196.800 344.652,196.800 341.145 C 196.800 337.320,196.410 336.400,194.786 336.400 L 193.600 336.400 193.600 341.000 M168.241 339.000 C 168.078 339.880,167.848 341.005,167.729 341.500 C 167.547 342.259,167.677 342.400,168.557 342.400 C 169.745 342.400,169.784 342.163,169.061 339.400 L 168.537 337.400 168.241 339.000 M155.667 364.345 C 157.896 366.840,157.272 369.156,153.255 373.300 L 151.025 375.600 153.913 375.600 L 156.800 375.600 156.800 377.000 L 156.800 378.400 151.800 378.400 L 146.800 378.400 146.800 377.090 C 146.800 375.987,147.280 375.308,149.843 372.790 C 153.207 369.485,154.275 367.662,153.595 366.391 C 152.791 364.889,150.000 365.579,150.000 367.280 C 150.000 367.834,149.682 368.000,148.624 368.000 C 146.900 368.000,146.620 367.557,147.213 365.761 C 148.269 362.561,153.317 361.715,155.667 364.345 M187.166 363.382 C 190.579 365.147,190.643 376.019,187.251 377.773 C 182.442 380.260,179.200 377.401,179.200 370.673 C 179.200 363.843,182.397 360.916,187.166 363.382 M220.306 364.168 L 221.800 365.537 221.935 369.935 C 222.159 377.260,218.998 380.385,213.987 377.793 C 210.568 376.025,210.506 365.270,213.905 363.426 C 215.963 362.309,218.611 362.617,220.306 364.168 M253.528 363.716 C 253.603 364.110,252.723 367.575,251.573 371.416 L 249.480 378.400 247.940 378.400 C 246.049 378.400,246.016 378.944,248.346 371.689 L 250.291 365.631 247.050 365.515 C 243.680 365.395,243.119 365.029,243.759 363.364 C 244.130 362.396,253.338 362.728,253.528 363.716 M182.880 366.080 C 182.377 366.583,182.185 373.775,182.643 374.967 C 182.978 375.840,185.822 375.840,186.157 374.967 C 186.291 374.619,186.400 372.585,186.400 370.447 C 186.400 366.247,186.133 365.600,184.400 365.600 C 183.828 365.600,183.144 365.816,182.880 366.080 M215.043 366.233 C 214.909 366.581,214.800 368.546,214.800 370.600 C 214.800 372.654,214.909 374.619,215.043 374.967 C 215.378 375.840,218.222 375.840,218.557 374.967 C 219.015 373.775,218.823 366.583,218.320 366.080 C 217.610 365.370,215.333 365.476,215.043 366.233 " stroke="none" fill="#44c4c4" fill-rule="evenodd"></path><path id="path2" d="M202.915 24.212 C 202.691 24.645,202.019 26.483,201.422 28.296 C 200.062 32.427,200.484 32.302,195.677 29.999 C 193.435 28.924,191.600 28.104,191.600 28.175 C 191.600 28.247,192.494 30.171,193.586 32.450 L 195.572 36.595 191.886 37.904 C 189.859 38.623,187.868 39.350,187.461 39.519 C 186.912 39.747,187.850 40.222,191.114 41.370 L 195.506 42.914 194.546 45.083 C 194.019 46.276,193.140 48.135,192.593 49.213 C 192.047 50.291,191.600 51.264,191.600 51.374 C 191.600 51.485,193.422 50.684,195.650 49.595 C 200.360 47.291,200.081 47.236,201.233 50.704 C 201.725 52.187,202.391 54.030,202.713 54.800 L 203.297 56.200 204.752 52.130 C 205.552 49.891,206.312 47.955,206.441 47.826 C 206.570 47.697,208.426 48.421,210.566 49.434 C 215.301 51.678,215.202 51.767,212.999 47.241 C 210.742 42.605,210.595 43.091,214.700 41.631 C 216.625 40.947,218.549 40.241,218.976 40.064 C 219.578 39.813,218.797 39.401,215.476 38.218 C 213.124 37.380,211.200 36.560,211.200 36.397 C 211.200 36.233,212.003 34.412,212.984 32.350 C 215.110 27.880,215.076 27.852,210.418 30.191 C 206.922 31.947,206.026 32.125,205.978 31.076 C 205.899 29.320,203.293 23.481,202.915 24.212 M196.000 145.200 L 196.000 226.800 203.400 226.800 L 210.800 226.800 210.800 145.200 L 210.800 63.600 203.400 63.600 L 196.000 63.600 196.000 145.200 M77.731 309.783 C 76.259 310.424,75.600 311.462,75.600 313.141 C 75.600 315.092,75.982 315.594,78.882 317.453 C 81.458 319.104,81.640 319.315,81.524 320.513 C 81.326 322.563,78.000 322.201,78.000 320.130 C 78.000 319.739,77.689 319.658,76.900 319.844 C 73.219 320.712,77.204 324.938,81.028 324.221 C 85.836 323.319,85.692 318.304,80.775 315.423 C 79.127 314.458,78.570 313.893,78.475 313.089 C 78.289 311.515,80.208 311.077,81.313 312.440 C 82.695 314.144,85.002 313.179,83.828 311.387 C 82.575 309.475,79.999 308.797,77.731 309.783 M168.550 309.476 C 165.658 310.043,164.296 320.334,166.764 322.962 C 168.683 325.004,173.022 324.679,174.198 322.405 C 174.934 320.981,175.041 312.967,174.345 311.438 C 173.576 309.751,171.217 308.952,168.550 309.476 M244.590 309.737 C 241.234 311.258,241.978 315.547,245.950 317.575 C 248.245 318.746,249.020 319.799,248.472 321.002 C 247.812 322.450,246.166 322.355,245.284 320.817 C 244.732 319.856,244.416 319.678,243.602 319.869 C 240.367 320.626,243.951 324.616,247.547 324.260 C 252.862 323.735,252.841 318.214,247.514 315.314 C 245.491 314.214,244.832 313.125,245.616 312.181 C 246.323 311.329,247.440 311.472,248.271 312.521 C 249.031 313.481,250.773 313.481,251.093 312.521 C 251.728 310.615,247.062 308.618,244.590 309.737 M331.390 309.737 C 329.204 310.728,328.143 319.195,329.802 322.405 C 330.975 324.673,335.317 325.005,337.227 322.972 C 339.057 321.023,338.794 312.005,336.856 310.250 C 335.855 309.345,332.872 309.064,331.390 309.737 M51.600 315.381 C 51.600 323.173,52.603 324.797,57.104 324.289 C 60.566 323.899,60.978 323.029,61.128 315.792 L 61.256 309.600 59.828 309.600 L 58.400 309.600 58.400 315.138 C 58.400 320.969,58.084 322.000,56.297 322.000 C 54.681 322.000,54.400 320.988,54.400 315.171 L 54.400 309.600 53.000 309.600 L 51.600 309.600 51.600 315.381 M65.200 316.800 L 65.200 324.000 68.800 324.000 L 72.400 324.000 72.400 322.800 C 72.400 321.612,72.378 321.600,70.200 321.600 L 68.000 321.600 68.000 315.600 L 68.000 309.600 66.600 309.600 L 65.200 309.600 65.200 316.800 M89.280 316.500 C 87.263 324.698,87.296 324.080,88.877 323.925 C 89.940 323.821,90.210 323.583,90.488 322.500 C 91.117 320.055,95.200 320.690,95.200 323.233 C 95.200 323.848,95.487 324.000,96.647 324.000 C 97.951 324.000,98.070 323.911,97.855 323.100 C 97.723 322.605,96.947 319.365,96.130 315.900 L 94.645 309.600 92.811 309.600 L 90.977 309.600 89.280 316.500 M101.200 316.777 L 101.200 324.000 102.587 324.000 L 103.974 324.000 104.087 319.534 L 104.200 315.068 106.173 319.534 C 108.114 323.929,108.166 324.000,109.473 324.000 L 110.800 324.000 110.800 316.800 L 110.800 309.600 109.600 309.600 L 108.400 309.600 108.400 313.667 C 108.400 318.382,108.408 318.383,106.224 313.510 L 104.562 309.800 102.881 309.677 L 101.200 309.554 101.200 316.777 M121.600 316.800 L 121.600 324.000 122.787 324.000 L 123.974 324.000 124.087 319.500 L 124.200 315.000 126.200 319.488 L 128.200 323.976 129.700 323.988 L 131.200 324.000 131.200 316.800 L 131.200 309.600 129.814 309.600 L 128.428 309.600 128.314 313.700 L 128.200 317.800 126.410 313.700 L 124.620 309.600 123.110 309.600 L 121.600 309.600 121.600 316.800 M137.801 310.100 C 137.564 310.781,134.400 323.509,134.400 323.782 C 134.400 324.945,137.141 323.838,137.377 322.580 L 137.644 321.160 139.698 321.280 C 141.644 321.394,141.770 321.469,142.088 322.700 C 142.371 323.800,142.606 324.000,143.611 324.000 C 145.084 324.000,145.115 324.521,143.166 316.405 L 141.533 309.600 139.754 309.600 C 138.690 309.600,137.905 309.801,137.801 310.100 M146.400 310.800 C 146.400 311.933,146.489 312.000,148.000 312.000 L 149.600 312.000 149.600 318.000 L 149.600 324.000 151.000 324.000 L 152.400 324.000 152.400 318.000 L 152.400 312.000 154.000 312.000 C 155.511 312.000,155.600 311.933,155.600 310.800 L 155.600 309.600 151.000 309.600 L 146.400 309.600 146.400 310.800 M159.200 316.800 L 159.200 324.000 160.600 324.000 L 162.000 324.000 162.000 316.800 L 162.000 309.600 160.600 309.600 L 159.200 309.600 159.200 316.800 M178.800 316.776 L 178.800 324.000 179.987 324.000 L 181.174 324.000 181.287 319.505 L 181.400 315.010 183.396 319.505 C 185.349 323.905,185.419 324.000,186.696 324.000 L 188.000 324.000 188.000 316.800 L 188.000 309.600 186.800 309.600 L 185.600 309.600 185.596 313.900 L 185.592 318.200 183.683 314.000 C 181.792 309.839,181.760 309.799,180.287 309.676 L 178.800 309.552 178.800 316.776 M195.001 310.100 C 194.764 310.781,191.600 323.509,191.600 323.782 C 191.600 324.931,194.341 323.841,194.574 322.600 C 194.968 320.497,198.576 320.417,199.112 322.500 C 199.547 324.192,202.273 324.809,201.889 323.129 C 201.772 322.618,200.999 319.365,200.172 315.900 L 198.668 309.600 196.922 309.600 C 195.884 309.600,195.104 309.803,195.001 310.100 M205.200 316.800 L 205.200 324.000 209.000 324.000 L 212.800 324.000 212.800 322.800 L 212.800 321.600 210.400 321.600 L 208.000 321.600 208.000 315.600 L 208.000 309.600 206.600 309.600 L 205.200 309.600 205.200 316.800 M222.400 316.800 L 222.400 324.000 223.800 324.000 L 225.200 324.000 225.200 316.800 L 225.200 309.600 223.800 309.600 L 222.400 309.600 222.400 316.800 M229.200 316.776 L 229.200 324.000 230.387 324.000 L 231.574 324.000 231.687 319.505 L 231.800 315.010 233.796 319.505 C 235.749 323.905,235.819 324.000,237.096 324.000 L 238.400 324.000 238.400 316.800 L 238.400 309.600 237.200 309.600 L 236.000 309.600 235.996 313.900 L 235.992 318.200 234.083 314.000 C 232.192 309.839,232.160 309.799,230.687 309.676 L 229.200 309.552 229.200 316.776 M254.400 310.800 C 254.400 311.956,254.467 312.000,256.200 312.000 L 258.000 312.000 258.000 318.000 L 258.000 324.000 259.400 324.000 L 260.800 324.000 260.800 318.000 L 260.800 312.000 262.400 312.000 C 263.911 312.000,264.000 311.933,264.000 310.800 L 264.000 309.600 259.200 309.600 L 254.400 309.600 254.400 310.800 M267.200 316.800 L 267.200 324.000 268.600 324.000 L 270.000 324.000 270.000 316.800 L 270.000 309.600 268.600 309.600 L 267.200 309.600 267.200 316.800 M273.200 310.800 C 273.200 311.956,273.267 312.000,275.000 312.000 L 276.800 312.000 276.800 318.000 L 276.800 324.000 278.200 324.000 L 279.600 324.000 279.600 318.000 L 279.600 312.000 281.200 312.000 C 282.711 312.000,282.800 311.933,282.800 310.800 L 282.800 309.600 278.000 309.600 L 273.200 309.600 273.200 310.800 M286.072 315.792 C 286.230 323.442,286.656 324.200,290.800 324.200 C 294.944 324.200,295.370 323.442,295.528 315.792 L 295.656 309.600 294.228 309.600 L 292.800 309.600 292.800 315.171 C 292.800 321.068,292.527 322.000,290.800 322.000 C 289.073 322.000,288.800 321.068,288.800 315.171 L 288.800 309.600 287.372 309.600 L 285.944 309.600 286.072 315.792 M298.800 310.800 C 298.800 311.933,298.889 312.000,300.400 312.000 L 302.000 312.000 302.000 318.000 L 302.000 324.000 303.400 324.000 L 304.800 324.000 304.800 318.000 L 304.800 312.000 306.600 312.000 C 308.333 312.000,308.400 311.956,308.400 310.800 L 308.400 309.600 303.600 309.600 L 298.800 309.600 298.800 310.800 M311.600 316.800 L 311.600 324.000 315.400 324.000 L 319.200 324.000 319.200 322.800 L 319.200 321.600 316.800 321.600 L 314.400 321.600 314.400 319.800 L 314.400 318.000 316.200 318.000 C 317.990 318.000,318.000 317.993,318.000 316.600 C 318.000 315.207,317.990 315.200,316.200 315.200 L 314.400 315.200 314.400 313.600 L 314.400 312.000 316.800 312.000 L 319.200 312.000 319.200 310.800 L 319.200 309.600 315.400 309.600 L 311.600 309.600 311.600 316.800 M342.000 316.800 L 342.000 324.000 343.400 324.000 L 344.800 324.000 344.800 321.000 L 344.800 318.000 346.600 318.000 C 348.390 318.000,348.400 317.993,348.400 316.600 C 348.400 315.207,348.390 315.200,346.600 315.200 L 344.800 315.200 344.800 313.600 L 344.800 312.000 347.000 312.000 C 349.178 312.000,349.200 311.988,349.200 310.800 L 349.200 309.600 345.600 309.600 L 342.000 309.600 342.000 316.800 M171.226 312.014 C 172.161 312.514,172.411 320.629,171.520 321.520 C 169.650 323.390,168.400 321.500,168.400 316.800 C 168.400 312.006,169.075 310.863,171.226 312.014 M334.971 312.229 C 335.879 313.136,335.879 320.464,334.971 321.371 C 332.977 323.366,332.000 321.842,332.000 316.740 C 332.000 311.795,333.008 310.265,334.971 312.229 M93.382 315.096 C 93.532 315.923,93.752 317.005,93.871 317.500 C 94.060 318.287,93.930 318.400,92.843 318.400 C 91.426 318.400,91.449 318.486,92.053 315.476 C 92.558 312.962,92.974 312.843,93.382 315.096 M139.885 318.328 C 138.337 318.499,138.292 318.408,138.818 316.149 C 139.566 312.933,139.680 312.893,140.377 315.600 L 141.047 318.200 139.885 318.328 M197.962 317.700 C 197.990 318.220,197.691 318.400,196.800 318.400 C 195.472 318.400,195.403 318.169,196.024 315.800 C 196.760 312.995,196.904 312.912,197.425 315.000 C 197.699 316.100,197.940 317.315,197.962 317.700 M78.263 334.053 C 75.510 335.653,76.166 339.314,79.577 341.386 C 82.470 343.144,82.957 343.718,82.637 344.995 C 82.278 346.425,80.354 346.394,79.295 344.941 C 78.673 344.087,78.319 343.934,77.462 344.149 C 75.031 344.759,77.873 348.400,80.780 348.400 C 86.967 348.400,87.243 342.283,81.196 339.198 C 78.997 338.076,78.655 336.354,80.514 335.764 C 81.130 335.568,81.596 335.779,82.266 336.559 C 83.320 337.784,85.200 337.678,85.200 336.392 C 85.200 334.334,80.504 332.750,78.263 334.053 M90.522 334.565 L 89.400 335.531 89.400 340.954 C 89.400 347.870,91.345 349.928,96.043 347.982 C 98.568 346.936,99.333 342.800,97.000 342.800 C 95.733 342.800,95.600 342.907,95.600 343.920 C 95.600 345.252,94.953 346.000,93.800 346.000 C 92.176 346.000,91.109 339.586,92.243 336.633 C 92.777 335.239,95.600 336.120,95.600 337.680 C 95.600 338.236,95.919 338.400,97.000 338.400 C 98.589 338.400,98.730 337.964,97.834 335.819 C 96.805 333.357,92.738 332.660,90.522 334.565 M102.000 341.000 L 102.000 348.400 103.400 348.400 L 104.800 348.400 104.800 341.000 L 104.800 333.600 103.400 333.600 L 102.000 333.600 102.000 341.000 M108.800 341.014 L 108.800 348.429 112.700 348.314 L 116.600 348.200 116.727 347.100 L 116.853 346.000 114.227 346.000 L 111.600 346.000 111.600 344.000 L 111.600 342.000 113.400 342.000 C 115.133 342.000,115.200 341.956,115.200 340.800 C 115.200 339.644,115.133 339.600,113.400 339.600 L 111.600 339.600 111.600 337.800 L 111.600 336.000 114.000 336.000 L 116.400 336.000 116.400 334.800 L 116.400 333.600 112.600 333.600 L 108.800 333.600 108.800 341.014 M120.400 341.000 L 120.400 348.400 121.587 348.400 L 122.775 348.400 122.887 343.719 L 123.000 339.038 125.052 343.619 C 127.081 348.148,127.120 348.200,128.452 348.200 L 129.800 348.200 129.909 340.900 L 130.018 333.600 128.609 333.600 L 127.200 333.600 127.188 337.900 L 127.175 342.200 125.288 337.908 L 123.400 333.615 121.900 333.608 L 120.400 333.600 120.400 341.000 M135.500 334.032 C 132.565 335.742,132.840 346.874,135.845 348.017 C 139.474 349.397,142.800 347.485,142.800 344.020 C 142.800 342.892,142.694 342.800,141.400 342.800 C 140.133 342.800,140.000 342.907,140.000 343.920 C 140.000 345.252,139.353 346.000,138.200 346.000 C 136.671 346.000,136.400 345.247,136.400 341.000 C 136.400 336.753,136.671 336.000,138.200 336.000 C 139.230 336.000,140.000 336.718,140.000 337.680 C 140.000 338.241,140.320 338.400,141.452 338.400 L 142.905 338.400 142.666 336.900 C 142.222 334.113,138.156 332.485,135.500 334.032 M146.400 341.014 L 146.400 348.429 150.300 348.314 L 154.200 348.200 154.327 347.100 L 154.453 346.000 151.827 346.000 L 149.200 346.000 149.200 344.000 L 149.200 342.000 151.000 342.000 C 152.733 342.000,152.800 341.956,152.800 340.800 C 152.800 339.644,152.733 339.600,151.000 339.600 L 149.200 339.600 149.200 337.800 L 149.200 336.000 151.600 336.000 L 154.000 336.000 154.000 334.800 L 154.000 333.600 150.200 333.600 L 146.400 333.600 146.400 341.014 M165.234 340.300 C 164.317 343.985,163.473 347.315,163.357 347.700 C 163.184 348.273,163.399 348.400,164.533 348.400 C 165.807 348.400,165.949 348.277,166.273 346.900 C 166.619 345.431,166.668 345.398,168.675 345.280 L 170.723 345.161 170.997 346.780 C 171.255 348.310,171.347 348.400,172.662 348.400 C 173.801 348.400,174.016 348.273,173.844 347.700 C 173.729 347.315,173.081 344.660,172.405 341.800 C 170.289 332.854,170.632 333.600,168.634 333.600 L 166.899 333.600 165.234 340.300 M177.200 341.025 L 177.200 348.451 178.500 348.325 L 179.800 348.200 180.000 343.800 L 180.200 339.400 181.949 343.400 C 184.057 348.221,184.190 348.400,185.649 348.400 L 186.800 348.400 186.800 341.000 L 186.800 333.600 185.600 333.600 L 184.400 333.600 184.363 337.900 L 184.327 342.200 182.290 337.900 L 180.253 333.600 178.726 333.600 L 177.200 333.600 177.200 341.025 M190.800 340.958 L 190.800 348.400 193.300 348.399 C 198.444 348.398,199.585 347.003,199.594 340.706 C 199.602 334.802,198.877 333.882,194.037 333.662 L 190.800 333.515 190.800 340.958 M208.000 334.800 C 208.000 335.932,208.090 336.000,209.590 336.000 L 211.179 336.000 211.290 342.100 L 211.400 348.200 212.689 348.325 L 213.979 348.449 214.089 342.325 L 214.200 336.200 215.900 336.077 C 217.487 335.962,217.600 335.876,217.600 334.777 L 217.600 333.600 212.800 333.600 L 208.000 333.600 208.000 334.800 M220.800 341.000 L 220.800 348.400 224.600 348.400 L 228.400 348.400 228.400 347.200 L 228.400 346.000 226.000 346.000 L 223.600 346.000 223.600 344.000 L 223.600 342.000 225.400 342.000 C 227.133 342.000,227.200 341.956,227.200 340.800 C 227.200 339.644,227.133 339.600,225.400 339.600 L 223.600 339.600 223.600 337.800 L 223.600 336.000 226.000 336.000 L 228.400 336.000 228.400 334.800 L 228.400 333.600 224.600 333.600 L 220.800 333.600 220.800 341.000 M233.322 334.565 L 232.200 335.531 232.200 340.954 C 232.200 347.870,234.145 349.928,238.843 347.982 C 241.368 346.936,242.133 342.800,239.800 342.800 C 238.533 342.800,238.400 342.907,238.400 343.920 C 238.400 345.263,237.752 346.000,236.569 346.000 C 235.022 346.000,234.765 345.166,234.886 340.542 L 235.000 336.200 236.124 336.071 C 237.439 335.920,238.400 336.587,238.400 337.649 C 238.400 338.241,238.697 338.400,239.800 338.400 C 241.389 338.400,241.530 337.964,240.634 335.819 C 239.605 333.357,235.538 332.660,233.322 334.565 M244.800 341.000 L 244.800 348.400 246.200 348.400 L 247.600 348.400 247.600 345.200 L 247.600 342.000 249.600 342.000 L 251.600 342.000 251.600 345.200 L 251.600 348.400 253.000 348.400 L 254.400 348.400 254.400 341.000 L 254.400 333.600 253.000 333.600 L 251.600 333.600 251.600 336.600 L 251.600 339.600 249.600 339.600 L 247.600 339.600 247.600 336.600 L 247.600 333.600 246.200 333.600 L 244.800 333.600 244.800 341.000 M258.400 341.000 L 258.400 348.400 259.600 348.400 L 260.800 348.400 260.800 343.720 C 260.800 338.352,260.807 338.353,263.394 344.100 C 265.295 348.321,265.355 348.400,266.665 348.400 L 268.000 348.400 268.000 341.000 L 268.000 333.600 266.614 333.600 L 265.228 333.600 265.114 337.627 L 265.000 341.654 263.230 337.627 L 261.459 333.600 259.930 333.600 L 258.400 333.600 258.400 341.000 M273.463 334.053 C 270.622 335.704,270.916 346.613,273.838 347.945 C 278.455 350.048,280.562 347.998,280.732 341.237 L 280.864 336.002 279.663 334.801 C 278.365 333.504,275.088 333.108,273.463 334.053 M284.491 340.900 L 284.600 348.200 288.300 348.315 L 292.000 348.430 292.000 347.235 C 292.000 346.061,291.960 346.038,289.700 345.920 L 287.400 345.800 287.290 339.700 L 287.179 333.600 285.781 333.600 L 284.382 333.600 284.491 340.900 M296.800 334.117 C 294.276 335.392,293.920 345.100,296.318 347.243 C 298.187 348.914,301.154 348.908,302.831 347.231 C 304.000 346.062,304.000 346.061,304.000 341.000 C 304.000 334.163,301.479 331.753,296.800 334.117 M309.463 334.053 C 307.742 335.053,306.850 342.531,308.043 345.952 C 308.804 348.135,312.434 349.217,314.060 347.746 C 314.730 347.140,314.802 347.140,315.034 347.746 C 315.897 349.993,316.800 348.384,316.800 344.600 L 316.800 340.800 314.400 340.800 L 312.000 340.800 312.000 342.000 C 312.000 343.013,312.156 343.200,313.000 343.200 C 314.086 343.200,314.291 343.909,313.586 345.226 C 313.123 346.091,311.615 346.255,310.880 345.520 C 310.570 345.210,310.400 343.609,310.400 341.000 C 310.400 336.685,310.662 336.000,312.315 336.000 C 313.008 336.000,313.393 336.328,313.722 337.200 C 314.147 338.326,316.805 339.104,316.798 338.100 C 316.771 334.537,312.595 332.232,309.463 334.053 M321.217 337.900 C 323.035 341.866,323.188 342.441,323.194 345.300 L 323.200 348.400 324.600 348.400 L 326.000 348.400 326.000 345.437 C 326.000 342.977,326.211 342.011,327.243 339.737 C 327.926 338.232,328.824 336.224,329.239 335.276 L 329.992 333.552 328.530 333.676 C 327.151 333.793,327.009 333.941,326.016 336.284 C 324.606 339.617,324.665 339.614,323.353 336.415 C 322.219 333.648,322.176 333.603,320.723 333.601 L 319.245 333.600 321.217 337.900 M196.171 336.629 C 197.268 337.725,197.064 344.570,195.911 345.377 C 193.810 346.849,193.600 346.452,193.600 341.000 L 193.600 336.000 194.571 336.000 C 195.106 336.000,195.826 336.283,196.171 336.629 M277.914 340.542 C 278.035 345.166,277.778 346.000,276.231 346.000 C 274.669 346.000,274.400 345.266,274.400 341.000 C 274.400 336.519,274.680 335.894,276.598 336.082 L 277.800 336.200 277.914 340.542 M301.114 340.768 C 301.234 345.608,301.106 345.981,299.314 345.994 C 297.980 346.003,297.600 344.831,297.600 340.706 C 297.600 336.538,297.905 335.896,299.798 336.082 L 301.000 336.200 301.114 340.768 M169.413 339.860 C 169.720 341.147,169.978 342.335,169.986 342.500 C 169.994 342.665,169.351 342.800,168.557 342.800 C 167.552 342.800,167.174 342.645,167.310 342.290 C 167.418 342.009,167.723 340.735,167.988 339.458 C 168.554 336.730,168.673 336.763,169.413 339.860 M149.751 363.356 C 147.019 364.586,146.201 367.600,148.600 367.600 C 149.725 367.600,150.000 367.446,150.000 366.814 C 150.000 364.976,153.376 364.768,153.830 366.577 C 154.229 368.165,153.676 369.116,150.362 372.537 C 147.973 375.004,147.201 376.068,147.201 376.900 L 147.200 378.000 151.800 378.000 L 156.400 378.000 156.400 376.800 L 156.400 375.600 153.545 375.600 L 150.690 375.600 153.318 373.036 C 158.979 367.513,156.352 360.385,149.751 363.356 M182.130 363.384 C 179.860 364.371,179.400 365.596,179.400 370.653 C 179.400 375.877,179.905 376.988,182.736 377.988 C 187.108 379.532,189.400 377.010,189.400 370.653 C 189.400 363.928,186.817 361.345,182.130 363.384 M214.530 363.384 C 211.291 364.793,210.323 373.546,213.048 376.784 C 214.845 378.920,219.009 378.786,220.779 376.536 C 221.766 375.281,221.993 367.009,221.089 365.200 C 220.076 363.174,216.982 362.317,214.530 363.384 M244.000 364.400 L 244.000 365.600 247.200 365.600 C 248.960 365.600,250.400 365.742,250.400 365.915 C 250.400 366.088,249.513 368.878,248.428 372.115 L 246.457 378.000 247.948 378.000 L 249.439 378.000 251.523 370.900 C 252.669 366.995,253.605 363.665,253.603 363.500 C 253.601 363.335,251.440 363.200,248.800 363.200 L 244.000 363.200 244.000 364.400 M185.824 365.767 C 186.812 366.489,187.166 373.151,186.305 374.800 C 185.573 376.200,183.516 376.387,182.638 375.133 C 181.616 373.674,181.733 367.067,182.800 366.000 C 183.742 365.058,184.747 364.981,185.824 365.767 M218.224 365.767 C 219.212 366.489,219.566 373.151,218.705 374.800 C 217.973 376.200,215.916 376.387,215.038 375.133 C 214.146 373.860,214.135 367.356,215.023 366.089 C 215.734 365.074,217.088 364.938,218.224 365.767 " stroke="none" fill="#062158" fill-rule="evenodd"></path><path id="path3" d="M199.900 227.098 C 201.935 227.171,205.265 227.171,207.300 227.098 C 209.335 227.025,207.670 226.966,203.600 226.966 C 199.530 226.966,197.865 227.025,199.900 227.098 M51.375 309.721 C 51.265 310.008,51.231 312.573,51.301 315.421 L 51.426 320.600 51.513 315.124 L 51.600 309.648 53.100 309.491 L 54.600 309.334 53.087 309.267 C 52.161 309.226,51.497 309.402,51.375 309.721 M58.175 309.720 C 58.065 310.006,58.032 312.661,58.100 315.620 L 58.225 321.000 58.313 315.324 L 58.400 309.648 59.900 309.491 L 61.400 309.334 59.887 309.267 C 58.962 309.226,58.297 309.402,58.175 309.720 M64.800 316.800 L 64.800 324.400 68.700 324.317 L 72.600 324.234 68.900 324.102 L 65.200 323.970 65.200 316.809 L 65.200 309.648 66.700 309.491 L 68.200 309.334 66.500 309.267 L 64.800 309.200 64.800 316.800 M91.700 309.487 C 92.305 309.578,93.295 309.578,93.900 309.487 C 94.505 309.395,94.010 309.320,92.800 309.320 C 91.590 309.320,91.095 309.395,91.700 309.487 M101.400 309.403 C 102.314 309.721,104.729 309.809,104.548 309.516 C 104.441 309.342,103.598 309.214,102.676 309.232 C 101.754 309.249,101.180 309.326,101.400 309.403 M108.260 309.503 C 107.946 310.011,107.820 317.153,108.120 317.453 C 108.274 317.607,108.400 315.903,108.400 313.667 L 108.400 309.600 109.600 309.600 L 110.800 309.600 110.800 316.776 L 110.800 323.952 109.300 324.109 L 107.800 324.266 109.500 324.333 L 111.200 324.400 111.200 316.800 L 111.200 309.200 109.824 309.200 C 109.067 309.200,108.363 309.336,108.260 309.503 M121.200 316.824 L 121.200 324.448 122.700 324.324 L 124.200 324.200 124.400 320.059 C 124.510 317.781,124.468 315.711,124.306 315.459 C 124.144 315.206,124.009 317.025,124.006 319.500 L 124.000 324.000 122.800 324.000 L 121.600 324.000 121.600 316.823 L 121.600 309.646 123.300 309.493 L 125.000 309.340 123.100 309.270 L 121.200 309.200 121.200 316.824 M129.105 309.483 C 129.602 309.579,130.322 309.575,130.705 309.475 C 131.087 309.375,130.680 309.296,129.800 309.301 C 128.920 309.305,128.607 309.387,129.105 309.483 M137.852 309.516 C 137.744 309.690,138.318 309.770,139.128 309.693 C 141.602 309.459,141.893 309.295,139.924 309.246 C 138.892 309.221,137.959 309.342,137.852 309.516 M150.876 309.498 L 155.551 309.625 155.712 310.912 C 155.868 312.165,155.874 312.159,155.936 310.700 L 156.000 309.200 151.100 309.286 L 146.200 309.372 150.876 309.498 M158.800 316.800 L 158.800 324.400 160.500 324.333 L 162.200 324.266 160.700 324.109 L 159.200 323.952 159.200 316.800 L 159.200 309.648 160.700 309.491 L 162.200 309.334 160.500 309.267 L 158.800 309.200 158.800 316.800 M178.400 316.800 L 178.400 324.400 179.900 324.336 C 181.377 324.273,181.380 324.269,180.100 324.111 L 178.800 323.949 178.800 316.733 L 178.800 309.516 180.366 309.665 C 181.228 309.748,181.847 309.676,181.743 309.507 C 181.638 309.338,180.843 309.200,179.976 309.200 L 178.400 309.200 178.400 316.800 M186.700 309.489 L 188.000 309.651 188.000 316.801 L 188.000 323.952 186.500 324.109 L 185.000 324.266 186.700 324.333 L 188.400 324.400 188.400 316.800 L 188.400 309.200 186.900 309.264 C 185.423 309.327,185.420 309.331,186.700 309.489 M194.800 309.520 C 194.800 309.696,195.475 309.775,196.300 309.697 C 198.872 309.452,199.082 309.295,196.900 309.246 C 195.745 309.221,194.800 309.344,194.800 309.520 M206.490 309.491 L 207.979 309.647 208.101 315.724 L 208.222 321.800 208.311 315.500 L 208.400 309.200 206.700 309.267 L 205.000 309.334 206.490 309.491 M222.000 316.800 L 222.000 324.400 223.700 324.333 L 225.400 324.266 223.900 324.109 L 222.400 323.952 222.400 316.800 L 222.400 309.648 223.900 309.491 L 225.400 309.334 223.700 309.267 L 222.000 309.200 222.000 316.800 M228.800 316.800 L 228.800 324.400 230.300 324.336 C 231.777 324.273,231.780 324.269,230.500 324.111 L 229.200 323.949 229.200 316.733 L 229.200 309.516 230.766 309.665 C 231.628 309.748,232.247 309.676,232.143 309.507 C 232.038 309.338,231.243 309.200,230.376 309.200 L 228.800 309.200 228.800 316.800 M237.100 309.489 L 238.400 309.651 238.400 316.801 L 238.400 323.952 236.900 324.109 L 235.400 324.266 237.100 324.333 L 238.800 324.400 238.800 316.800 L 238.800 309.200 237.300 309.264 C 235.823 309.327,235.820 309.331,237.100 309.489 M256.700 309.496 C 258.075 309.574,260.325 309.574,261.700 309.496 C 263.075 309.418,261.950 309.354,259.200 309.354 C 256.450 309.354,255.325 309.418,256.700 309.496 M268.500 309.476 L 270.000 309.648 270.000 316.800 L 270.000 323.952 268.597 324.118 L 267.193 324.284 268.697 324.242 L 270.200 324.200 270.200 316.800 L 270.200 309.400 268.600 309.352 L 267.000 309.305 268.500 309.476 M275.500 309.496 C 276.875 309.574,279.125 309.574,280.500 309.496 C 281.875 309.418,280.750 309.354,278.000 309.354 C 275.250 309.354,274.125 309.418,275.500 309.496 M287.289 309.476 L 288.778 309.647 288.906 315.123 L 289.033 320.600 289.016 315.000 L 289.000 309.400 287.400 309.352 L 285.800 309.305 287.289 309.476 M292.575 309.720 C 292.465 310.006,292.432 312.661,292.500 315.620 L 292.625 321.000 292.713 315.324 L 292.800 309.648 294.300 309.491 L 295.800 309.334 294.287 309.267 C 293.362 309.226,292.697 309.402,292.575 309.720 M301.100 309.496 C 302.475 309.574,304.725 309.574,306.100 309.496 C 307.475 309.418,306.350 309.354,303.600 309.354 C 300.850 309.354,299.725 309.418,301.100 309.496 M311.200 316.800 L 311.200 324.400 315.400 324.400 L 319.600 324.400 319.536 322.900 C 319.473 321.423,319.469 321.420,319.311 322.700 L 319.149 324.000 315.375 324.000 L 311.600 324.000 311.600 316.814 L 311.600 309.629 315.500 309.498 L 319.400 309.367 315.300 309.284 L 311.200 309.200 311.200 316.800 M341.783 309.699 C 341.672 309.990,341.630 313.372,341.690 317.214 L 341.800 324.200 343.303 324.242 L 344.807 324.284 343.403 324.118 L 342.000 323.952 342.000 316.776 L 342.000 309.600 345.575 309.600 L 349.149 309.600 349.312 310.700 C 349.465 311.738,349.472 311.732,349.437 310.600 L 349.400 309.400 345.693 309.285 C 342.904 309.198,341.936 309.301,341.783 309.699 M152.488 317.876 L 152.400 323.952 150.900 324.109 L 149.400 324.266 150.913 324.333 C 152.858 324.419,152.846 324.463,152.700 317.582 L 152.576 311.800 152.488 317.876 M257.689 318.100 L 257.600 324.400 259.300 324.333 L 261.000 324.266 259.510 324.109 L 258.021 323.953 257.899 317.876 L 257.778 311.800 257.689 318.100 M276.489 318.100 L 276.400 324.400 278.100 324.333 L 279.800 324.266 278.310 324.109 L 276.821 323.953 276.699 317.876 L 276.578 311.800 276.489 318.100 M304.800 317.976 L 304.800 323.952 303.300 324.109 L 301.800 324.266 303.500 324.333 L 305.200 324.400 305.200 318.200 C 305.200 314.790,305.110 312.000,305.000 312.000 C 304.890 312.000,304.800 314.689,304.800 317.976 M168.548 316.800 C 168.548 319.110,168.614 320.055,168.695 318.900 C 168.776 317.745,168.776 315.855,168.695 314.700 C 168.614 313.545,168.548 314.490,168.548 316.800 M328.948 316.800 C 328.948 319.110,329.014 320.055,329.095 318.900 C 329.176 317.745,329.176 315.855,329.095 314.700 C 329.014 313.545,328.948 314.490,328.948 316.800 M335.348 316.800 C 335.348 319.110,335.414 320.055,335.495 318.900 C 335.576 317.745,335.576 315.855,335.495 314.700 C 335.414 313.545,335.348 314.490,335.348 316.800 M174.946 317.000 C 174.947 319.200,175.014 320.049,175.095 318.887 C 175.176 317.724,175.176 315.924,175.093 314.887 C 175.011 313.849,174.945 314.800,174.946 317.000 M84.493 320.400 C 84.493 321.170,84.575 321.485,84.676 321.100 C 84.776 320.715,84.776 320.085,84.676 319.700 C 84.575 319.315,84.493 319.630,84.493 320.400 M87.206 323.700 C 87.200 324.438,89.732 324.758,90.155 324.072 C 90.267 323.892,89.807 323.826,89.135 323.924 C 88.364 324.037,87.782 323.900,87.562 323.552 C 87.285 323.115,87.211 323.146,87.206 323.700 M142.161 323.690 C 142.333 324.561,145.206 324.594,145.168 323.724 C 145.150 323.304,145.052 323.210,144.935 323.500 C 144.693 324.100,142.552 324.172,142.263 323.590 C 142.151 323.365,142.105 323.410,142.161 323.690 M96.600 324.000 L 95.000 324.286 96.700 324.343 C 97.635 324.374,98.400 324.220,98.400 324.000 C 98.400 323.780,98.355 323.626,98.300 323.657 C 98.245 323.688,97.480 323.842,96.600 324.000 M191.200 324.089 C 191.200 324.260,191.920 324.400,192.800 324.400 C 193.680 324.400,194.400 324.329,194.400 324.242 C 194.400 324.155,193.680 324.015,192.800 323.931 C 191.920 323.848,191.200 323.919,191.200 324.089 M199.200 324.100 C 199.200 324.265,199.920 324.400,200.800 324.400 C 201.680 324.400,202.400 324.265,202.400 324.100 C 202.400 323.935,201.680 323.800,200.800 323.800 C 199.920 323.800,199.200 323.935,199.200 324.100 M101.905 324.283 C 102.402 324.379,103.122 324.375,103.505 324.275 C 103.887 324.175,103.480 324.096,102.600 324.101 C 101.720 324.105,101.407 324.187,101.905 324.283 M129.105 324.283 C 129.602 324.379,130.322 324.375,130.705 324.275 C 131.087 324.175,130.680 324.096,129.800 324.101 C 128.920 324.105,128.607 324.187,129.105 324.283 M135.105 324.283 C 135.602 324.379,136.322 324.375,136.705 324.275 C 137.087 324.175,136.680 324.096,135.800 324.101 C 134.920 324.105,134.607 324.187,135.105 324.283 M207.113 324.295 C 208.276 324.376,210.076 324.376,211.113 324.293 C 212.151 324.211,211.200 324.145,209.000 324.146 C 206.800 324.147,205.951 324.214,207.113 324.295 M80.305 333.483 C 80.802 333.579,81.522 333.575,81.905 333.475 C 82.287 333.375,81.880 333.296,81.000 333.301 C 80.120 333.305,79.807 333.387,80.305 333.483 M93.105 333.483 C 93.602 333.579,94.322 333.575,94.705 333.475 C 95.087 333.375,94.680 333.296,93.800 333.301 C 92.920 333.305,92.607 333.387,93.105 333.483 M137.505 333.483 C 138.002 333.579,138.722 333.575,139.105 333.475 C 139.487 333.375,139.080 333.296,138.200 333.301 C 137.320 333.305,137.007 333.387,137.505 333.483 M235.905 333.483 C 236.402 333.579,237.122 333.575,237.505 333.475 C 237.887 333.375,237.480 333.296,236.600 333.301 C 235.720 333.305,235.407 333.387,235.905 333.483 M275.500 333.482 C 275.995 333.578,276.805 333.578,277.300 333.482 C 277.795 333.387,277.390 333.309,276.400 333.309 C 275.410 333.309,275.005 333.387,275.500 333.482 M298.700 333.482 C 299.195 333.578,300.005 333.578,300.500 333.482 C 300.995 333.387,300.590 333.309,299.600 333.309 C 298.610 333.309,298.205 333.387,298.700 333.482 M311.505 333.483 C 312.002 333.579,312.722 333.575,313.105 333.475 C 313.487 333.375,313.080 333.296,312.200 333.301 C 311.320 333.305,311.007 333.387,311.505 333.483 M104.966 340.800 C 104.966 344.870,105.025 346.535,105.098 344.500 C 105.171 342.465,105.171 339.135,105.098 337.100 C 105.025 335.065,104.966 336.730,104.966 340.800 M108.566 340.800 C 108.566 344.870,108.625 346.535,108.698 344.500 C 108.771 342.465,108.771 339.135,108.698 337.100 C 108.625 335.065,108.566 336.730,108.566 340.800 M116.454 334.681 L 116.400 335.962 113.900 336.104 L 111.400 336.246 113.913 336.323 C 116.612 336.406,117.025 336.108,116.686 334.329 C 116.549 333.611,116.497 333.691,116.454 334.681 M120.167 341.000 C 120.167 345.180,120.226 346.836,120.298 344.679 C 120.371 342.523,120.370 339.103,120.298 337.079 C 120.225 335.056,120.166 336.820,120.167 341.000 M154.054 334.700 L 154.000 336.000 151.600 336.000 L 149.200 336.000 149.200 337.800 L 149.200 339.600 150.975 339.600 C 152.677 339.600,152.756 339.653,152.911 340.900 C 153.069 342.180,153.073 342.177,153.136 340.700 L 153.200 339.200 151.400 339.200 C 149.610 339.200,149.600 339.193,149.600 337.800 L 149.600 336.400 151.813 336.400 C 154.182 336.400,154.612 336.040,154.286 334.329 C 154.151 333.622,154.096 333.710,154.054 334.700 M183.927 337.441 C 183.857 339.554,183.932 341.489,184.094 341.741 C 184.256 341.994,184.391 340.265,184.394 337.900 C 184.401 332.561,184.099 332.264,183.927 337.441 M186.966 340.800 C 186.966 344.870,187.025 346.535,187.098 344.500 C 187.171 342.465,187.171 339.135,187.098 337.100 C 187.025 335.065,186.966 336.730,186.966 340.800 M190.566 340.800 C 190.566 344.870,190.625 346.535,190.698 344.500 C 190.771 342.465,190.771 339.135,190.698 337.100 C 190.625 335.065,190.566 336.730,190.566 340.800 M220.567 341.000 C 220.567 345.180,220.626 346.836,220.698 344.679 C 220.771 342.523,220.770 339.103,220.698 337.079 C 220.625 335.056,220.566 336.820,220.567 341.000 M244.566 340.800 C 244.566 344.870,244.625 346.535,244.698 344.500 C 244.771 342.465,244.771 339.135,244.698 337.100 C 244.625 335.065,244.566 336.730,244.566 340.800 M251.200 336.378 L 251.200 339.156 249.300 339.306 L 247.400 339.456 249.500 339.528 L 251.600 339.600 251.600 336.600 C 251.600 334.950,251.510 333.600,251.400 333.600 C 251.290 333.600,251.200 334.850,251.200 336.378 M258.166 340.800 C 258.166 344.870,258.225 346.535,258.298 344.500 C 258.371 342.465,258.371 339.135,258.298 337.100 C 258.225 335.065,258.166 336.730,258.166 340.800 M287.384 339.700 L 287.400 345.800 289.702 345.833 L 292.004 345.866 289.812 345.713 L 287.621 345.561 287.494 339.580 L 287.368 333.599 287.384 339.700 M208.700 336.282 C 209.195 336.378,210.005 336.378,210.500 336.282 C 210.995 336.187,210.590 336.109,209.600 336.109 C 208.610 336.109,208.205 336.187,208.700 336.282 M214.176 336.518 C 214.067 336.804,214.033 339.639,214.100 342.818 L 214.224 348.600 214.312 342.523 L 214.400 336.446 216.100 336.293 L 217.800 336.140 216.087 336.070 C 214.999 336.025,214.302 336.189,214.176 336.518 M224.700 336.289 C 225.415 336.378,226.585 336.378,227.300 336.289 C 228.015 336.201,227.430 336.128,226.000 336.128 C 224.570 336.128,223.985 336.201,224.700 336.289 M274.484 340.820 C 274.402 344.921,274.667 346.000,275.756 346.000 C 275.975 346.000,275.853 345.775,275.486 345.500 C 274.953 345.101,274.793 344.155,274.694 340.800 L 274.569 336.600 274.484 340.820 M280.950 341.000 C 280.951 343.420,281.016 344.358,281.096 343.085 C 281.176 341.812,281.175 339.832,281.094 338.685 C 281.014 337.538,280.949 338.580,280.950 341.000 M297.748 340.800 C 297.748 343.110,297.814 344.055,297.895 342.900 C 297.976 341.745,297.976 339.855,297.895 338.700 C 297.814 337.545,297.748 338.490,297.748 340.800 M304.150 341.000 C 304.151 343.420,304.216 344.358,304.296 343.085 C 304.376 341.812,304.375 339.832,304.294 338.685 C 304.214 337.538,304.149 338.580,304.150 341.000 M310.550 341.000 C 310.551 343.420,310.616 344.358,310.696 343.085 C 310.776 341.812,310.775 339.832,310.694 338.685 C 310.614 337.538,310.549 338.580,310.550 341.000 M88.946 341.000 C 88.947 343.200,89.014 344.049,89.095 342.887 C 89.176 341.724,89.176 339.924,89.093 338.887 C 89.011 337.849,88.945 338.800,88.946 341.000 M199.746 341.000 C 199.747 343.200,199.814 344.049,199.895 342.887 C 199.976 341.724,199.976 339.924,199.893 338.887 C 199.811 337.849,199.745 338.800,199.746 341.000 M231.746 341.000 C 231.747 343.200,231.814 344.049,231.895 342.887 C 231.976 341.724,231.976 339.924,231.893 338.887 C 231.811 337.849,231.745 338.800,231.746 341.000 M133.342 341.000 C 133.341 342.980,133.408 343.840,133.492 342.912 C 133.576 341.984,133.577 340.364,133.495 339.312 C 133.412 338.260,133.343 339.020,133.342 341.000 M113.276 339.480 C 114.957 339.625,115.169 339.754,115.314 340.721 C 115.460 341.700,115.471 341.688,115.437 340.600 C 115.401 339.437,115.338 339.399,113.400 339.359 L 111.400 339.318 113.276 339.480 M122.800 343.600 C 122.800 346.093,122.880 348.053,122.979 347.954 C 123.261 347.672,123.327 339.594,123.050 339.316 C 122.912 339.179,122.800 341.107,122.800 343.600 M224.505 339.487 C 225.114 339.579,226.014 339.577,226.505 339.482 C 226.997 339.387,226.500 339.311,225.400 339.314 C 224.300 339.317,223.897 339.395,224.505 339.487 M260.873 343.820 L 260.947 348.600 261.180 344.200 C 261.309 341.780,261.276 339.629,261.107 339.420 C 260.938 339.211,260.833 341.191,260.873 343.820 M311.754 340.977 C 311.632 341.294,311.617 341.879,311.720 342.277 C 311.845 342.758,311.923 342.638,311.954 341.919 C 311.998 340.881,312.099 340.833,314.500 340.696 L 317.000 340.554 314.487 340.477 C 312.615 340.420,311.918 340.547,311.754 340.977 M169.600 342.045 C 169.600 342.313,169.120 342.420,168.400 342.315 C 167.740 342.218,167.200 342.287,167.200 342.469 C 167.200 342.651,167.830 342.800,168.600 342.800 C 169.578 342.800,170.000 342.619,170.000 342.200 C 170.000 341.870,169.910 341.600,169.800 341.600 C 169.690 341.600,169.600 341.800,169.600 342.045 M149.272 343.900 L 149.200 346.000 151.900 345.923 L 154.600 345.846 152.121 345.704 L 149.642 345.563 149.493 343.681 L 149.344 341.800 149.272 343.900 M251.337 345.000 C 251.339 346.760,251.409 347.430,251.493 346.489 C 251.578 345.549,251.577 344.109,251.491 343.289 C 251.405 342.470,251.336 343.240,251.337 345.000 M326.137 345.000 C 326.139 346.760,326.209 347.430,326.293 346.489 C 326.378 345.549,326.377 344.109,326.291 343.289 C 326.205 342.470,326.136 343.240,326.137 345.000 M166.667 345.467 C 166.520 345.613,166.403 345.928,166.406 346.167 C 166.409 346.405,166.567 346.355,166.757 346.056 C 166.991 345.686,167.694 345.559,168.951 345.659 C 169.968 345.740,170.800 345.669,170.800 345.503 C 170.800 345.130,167.036 345.097,166.667 345.467 M112.691 345.889 C 113.401 345.977,114.661 345.979,115.491 345.892 C 116.321 345.805,115.740 345.733,114.200 345.731 C 112.660 345.729,111.981 345.800,112.691 345.889 M225.876 345.896 C 228.327 346.035,228.354 346.050,228.512 347.318 C 228.667 348.558,228.674 348.550,228.736 347.100 L 228.800 345.600 226.100 345.677 L 223.400 345.754 225.876 345.896 M235.700 348.676 C 236.085 348.776,236.715 348.776,237.100 348.676 C 237.485 348.575,237.170 348.493,236.400 348.493 C 235.630 348.493,235.315 348.575,235.700 348.676 M275.700 348.676 C 276.085 348.776,276.715 348.776,277.100 348.676 C 277.485 348.575,277.170 348.493,276.400 348.493 C 275.630 348.493,275.315 348.575,275.700 348.676 M298.900 348.676 C 299.285 348.776,299.915 348.776,300.300 348.676 C 300.685 348.575,300.370 348.493,299.600 348.493 C 298.830 348.493,298.515 348.575,298.900 348.676 M243.754 363.377 C 243.632 363.694,243.617 364.279,243.720 364.677 C 243.844 365.155,243.923 365.032,243.954 364.313 L 244.000 363.225 248.700 363.099 L 253.400 362.972 248.687 362.886 C 244.895 362.817,243.932 362.913,243.754 363.377 M146.926 367.000 C 146.991 367.644,147.319 367.809,148.603 367.848 L 150.200 367.895 148.725 367.725 C 147.788 367.617,147.176 367.308,147.048 366.877 C 146.901 366.386,146.868 366.420,146.926 367.000 M221.750 370.600 C 221.751 373.020,221.816 373.958,221.896 372.685 C 221.976 371.412,221.975 369.432,221.894 368.285 C 221.814 367.138,221.749 368.180,221.750 370.600 M182.146 370.600 C 182.147 372.800,182.214 373.649,182.295 372.487 C 182.376 371.324,182.376 369.524,182.293 368.487 C 182.211 367.449,182.145 368.400,182.146 370.600 M214.546 370.600 C 214.547 372.800,214.614 373.649,214.695 372.487 C 214.776 371.324,214.776 369.524,214.693 368.487 C 214.611 367.449,214.545 368.400,214.546 370.600 M186.542 370.600 C 186.541 372.580,186.608 373.440,186.692 372.512 C 186.776 371.584,186.777 369.964,186.695 368.912 C 186.612 367.860,186.543 368.620,186.542 370.600 M218.942 370.600 C 218.941 372.580,219.008 373.440,219.092 372.512 C 219.176 371.584,219.177 369.964,219.095 368.912 C 219.012 367.860,218.943 368.620,218.942 370.600 M149.787 372.900 L 147.400 375.400 149.900 373.013 C 151.275 371.699,152.400 370.574,152.400 370.513 C 152.400 370.217,152.005 370.578,149.787 372.900 M146.864 376.900 L 146.800 378.400 151.800 378.400 L 156.800 378.400 156.736 376.900 C 156.673 375.423,156.669 375.420,156.511 376.700 L 156.349 378.000 151.800 378.000 L 147.251 378.000 147.089 376.700 C 146.931 375.420,146.927 375.423,146.864 376.900 M183.700 375.876 C 184.085 375.976,184.715 375.976,185.100 375.876 C 185.485 375.775,185.170 375.693,184.400 375.693 C 183.630 375.693,183.315 375.775,183.700 375.876 M216.100 375.876 C 216.485 375.976,217.115 375.976,217.500 375.876 C 217.885 375.775,217.570 375.693,216.800 375.693 C 216.030 375.693,215.715 375.775,216.100 375.876 M247.100 378.282 C 247.595 378.378,248.405 378.378,248.900 378.282 C 249.395 378.187,248.990 378.109,248.000 378.109 C 247.010 378.109,246.605 378.187,247.100 378.282 " stroke="none" fill="#246c8c" fill-rule="evenodd"></path><path id="path4" d="M30.000 261.708 L 30.000 287.015 34.100 291.008 L 38.200 295.000 34.300 290.993 L 30.400 286.986 30.400 261.893 L 30.400 236.800 37.597 236.800 L 44.795 236.800 44.900 265.900 L 45.005 295.000 45.103 265.700 L 45.200 236.400 37.600 236.400 L 30.000 236.400 30.000 261.708 M92.697 236.696 L 99.995 236.818 100.101 265.709 L 100.208 294.600 100.204 265.600 L 100.200 236.600 92.800 236.587 L 85.400 236.574 92.697 236.696 M112.984 236.900 C 112.879 237.175,112.841 250.360,112.899 266.200 L 113.005 295.000 113.103 265.903 L 113.200 236.806 138.700 236.700 L 164.200 236.594 138.687 236.497 C 118.574 236.421,113.134 236.506,112.984 236.900 M168.184 236.900 C 168.079 237.175,168.041 250.360,168.099 266.200 L 168.205 295.000 168.303 265.916 L 168.400 236.831 171.900 236.698 L 175.400 236.565 171.887 236.482 C 169.383 236.424,168.320 236.543,168.184 236.900 M199.721 236.698 C 201.877 236.771,205.297 236.770,207.321 236.698 C 209.344 236.625,207.580 236.566,203.400 236.567 C 199.220 236.567,197.564 236.626,199.721 236.698 M223.783 236.900 C 223.678 237.175,223.640 245.500,223.700 255.400 L 223.808 273.400 223.904 255.102 L 224.000 236.805 257.700 236.700 L 291.400 236.595 257.687 236.498 C 231.014 236.420,223.935 236.504,223.783 236.900 M304.000 244.000 L 304.000 251.618 311.500 251.509 L 319.000 251.400 319.000 244.000 L 319.000 236.600 311.500 236.491 L 304.000 236.382 304.000 244.000 M347.100 236.700 L 371.200 236.806 371.200 243.999 L 371.200 251.191 354.500 251.300 L 337.800 251.409 354.700 251.505 L 371.600 251.600 371.600 244.000 L 371.600 236.400 347.300 236.497 L 323.000 236.594 347.100 236.700 M318.800 244.000 L 318.800 251.200 311.600 251.200 L 304.400 251.200 304.400 244.000 L 304.400 236.800 311.600 236.800 L 318.800 236.800 318.800 244.000 M182.988 269.600 C 182.988 283.570,183.039 289.285,183.100 282.300 C 183.161 275.315,183.161 263.885,183.100 256.900 C 183.039 249.915,182.988 255.630,182.988 269.600 M136.900 251.500 C 141.905 251.563,150.095 251.563,155.100 251.500 C 160.105 251.436,156.010 251.384,146.000 251.384 C 135.990 251.384,131.895 251.436,136.900 251.500 M199.721 251.498 C 201.877 251.571,205.297 251.570,207.321 251.498 C 209.344 251.425,207.580 251.366,203.400 251.367 C 199.220 251.367,197.564 251.426,199.721 251.498 M251.929 251.500 C 259.260 251.561,271.140 251.561,278.329 251.500 C 285.518 251.439,279.520 251.389,265.000 251.389 C 250.480 251.389,244.598 251.439,251.929 251.500 M223.767 287.400 C 223.767 291.580,223.826 293.236,223.898 291.079 C 223.971 288.923,223.970 285.503,223.898 283.479 C 223.825 281.456,223.766 283.220,223.767 287.400 " stroke="none" fill="#74d4d4" fill-rule="evenodd"></path></g></svg>