<?xml version="1.0" standalone="no"?>
<!DOCTYPE svg PUBLIC "-//W3C//DTD SVG 20010904//EN"
 "http://www.w3.org/TR/2001/REC-SVG-20010904/DTD/svg10.dtd">
<svg version="1.0" xmlns="http://www.w3.org/2000/svg"
 width="1000.000000pt" height="1000.000000pt" viewBox="0 0 1000.000000 1000.000000"
 preserveAspectRatio="xMidYMid meet">
<metadata>
Created by potrace 1.14, written by Peter Selinger 2001-2017
</metadata>
<g transform="translate(0.000000,1000.000000) scale(0.100000,-0.100000)"
fill="#000000" stroke="none">
<path d="M5040 9319 c-19 -55 -38 -103 -42 -105 -5 -3 -51 15 -104 40 -53 25
-100 46 -105 46 -4 0 15 -47 43 -105 28 -58 49 -107 47 -108 -2 -2 -52 -21
-111 -41 -60 -21 -108 -39 -108 -41 0 -1 48 -19 108 -40 59 -21 109 -39 111
-41 2 -2 -20 -50 -47 -108 -28 -58 -46 -106 -41 -106 5 0 50 21 100 46 50 25
96 43 103 41 6 -3 27 -50 46 -106 19 -55 38 -101 41 -101 3 0 23 49 44 109
l38 108 104 -49 c57 -28 106 -48 108 -46 2 2 -18 50 -46 107 -27 57 -48 105
-47 106 2 1 52 19 112 40 120 42 120 41 8 80 -37 12 -79 28 -94 33 l-27 11 49
103 c26 57 46 105 44 107 -3 3 -50 -17 -105 -44 -78 -39 -102 -47 -108 -36 -5
7 -23 55 -41 107 -18 52 -35 94 -39 94 -3 0 -22 -45 -41 -101z"/>
<path d="M4902 6368 l3 -2043 183 -3 182 -2 0 2045 0 2045 -185 0 -185 0 2
-2042z"/>
<path d="M1287 2263 c-11 -10 -8 -254 3 -295 6 -20 23 -47 38 -59 38 -29 141
-24 175 9 21 21 22 32 25 188 l3 165 -38 -3 -38 -3 -5 -150 -5 -150 -30 -3
c-48 -6 -55 15 -55 170 l0 138 -33 0 c-19 0 -37 -3 -40 -7z"/>
<path d="M1620 2080 l0 -190 95 0 95 0 0 35 0 35 -55 0 -55 0 0 155 0 155 -40
0 -40 0 0 -190z"/>
<path d="M1918 2241 c-27 -24 -33 -36 -33 -71 0 -36 6 -47 37 -73 20 -18 51
-41 69 -52 43 -27 57 -50 43 -72 -6 -10 -18 -19 -27 -21 -16 -3 -51 25 -59 48
-3 9 -14 10 -36 5 -43 -9 -42 -37 2 -81 30 -30 40 -34 86 -34 46 0 56 4 87 35
32 32 35 40 30 76 -6 48 -24 69 -97 118 -65 43 -74 74 -23 79 25 3 33 -1 38
-18 6 -18 12 -21 38 -16 39 8 41 10 33 41 -9 35 -61 65 -113 65 -33 0 -50 -7
-75 -29z"/>
<path d="M2226 2085 c-25 -101 -46 -187 -46 -190 0 -4 17 -5 38 -3 34 3 38 6
46 41 9 36 10 37 57 37 l47 0 7 -40 c7 -39 8 -40 47 -40 28 0 39 4 35 13 -2 6
-23 92 -47 190 l-42 177 -48 0 -48 0 -46 -185z m112 3 l10 -48 -30 0 c-23 0
-28 4 -24 18 3 9 8 34 12 55 8 47 19 38 32 -25z"/>
<path d="M2530 2080 l0 -190 35 0 34 0 3 112 3 111 49 -111 50 -112 38 0 38 0
0 191 0 190 -37 -3 -38 -3 -5 -89 -5 -89 -42 91 -41 92 -41 0 -41 0 0 -190z"/>
<path d="M3030 2079 l0 -190 38 3 37 3 3 100 4 100 48 -102 c48 -102 49 -103
84 -103 l36 0 0 190 0 190 -35 0 -34 0 -3 -102 -3 -102 -45 102 -45 102 -42 0
-43 0 0 -191z"/>
<path d="M3446 2262 c-9 -14 -86 -330 -86 -352 0 -16 6 -20 34 -20 31 0 35 3
43 38 8 35 11 37 55 40 46 3 46 3 55 -35 8 -35 12 -38 46 -41 20 -2 37 -1 37
1 0 6 -67 289 -81 340 -9 36 -11 37 -54 37 -24 0 -46 -4 -49 -8z m74 -214 c0
-5 -13 -8 -29 -8 -29 0 -29 0 -19 43 17 72 20 74 34 22 8 -27 14 -53 14 -57z"/>
<path d="M3660 2235 c0 -34 1 -35 40 -35 l40 0 0 -156 0 -155 38 3 37 3 3 153
3 152 39 0 c39 0 40 1 40 35 l0 35 -120 0 -120 0 0 -35z"/>
<path d="M3970 2080 l0 -190 40 0 40 0 0 190 0 190 -40 0 -40 0 0 -190z"/>
<path d="M4189 2256 c-42 -24 -51 -61 -47 -196 3 -119 4 -122 31 -146 22 -19
40 -24 80 -24 95 0 127 46 127 182 0 96 -12 148 -40 173 -27 24 -116 31 -151
11z m99 -68 c14 -14 17 -195 3 -216 -5 -8 -21 -12 -37 -10 l-29 3 -3 104 c-1
58 0 111 2 118 7 16 48 17 64 1z"/>
<path d="M4460 2080 l0 -190 35 0 34 0 3 113 3 112 49 -112 50 -113 38 0 38 0
0 190 0 190 -35 0 -35 0 -1 -102 -1 -103 -48 103 -49 102 -40 0 -41 0 0 -190z"/>
<path d="M4831 2093 c-24 -98 -46 -184 -49 -190 -3 -9 8 -13 36 -13 38 0 40 2
49 38 8 36 10 37 55 40 l46 3 7 -40 c7 -40 8 -41 46 -41 36 0 39 2 34 23 -3
12 -21 87 -40 167 -19 80 -37 155 -40 168 -5 19 -12 22 -53 22 l-48 0 -43
-177z m119 -50 c0 -2 -14 -3 -31 -3 -24 0 -29 4 -25 18 3 9 8 31 12 47 12 52
17 51 30 -5 7 -30 13 -56 14 -57z"/>
<path d="M5130 2080 l0 -190 95 0 95 0 0 35 0 35 -55 0 -55 0 0 155 0 155 -40
0 -40 0 0 -190z"/>
<path d="M5550 2080 l0 -190 40 0 40 0 0 190 0 190 -40 0 -40 0 0 -190z"/>
<path d="M5720 2080 l0 -190 35 0 34 0 3 113 3 112 49 -112 50 -113 38 0 38 0
0 190 0 190 -35 0 -35 0 -1 -102 -1 -103 -48 103 -49 102 -40 0 -41 0 0 -190z"/>
<path d="M6089 2241 c-22 -23 -29 -39 -29 -69 0 -49 20 -75 91 -116 40 -24 55
-39 57 -57 6 -53 -61 -64 -74 -12 -6 22 -10 25 -42 20 -19 -4 -37 -8 -40 -11
-9 -10 21 -67 46 -86 50 -40 162 -17 182 36 26 68 1 121 -78 167 -44 26 -58
39 -60 60 -3 24 0 27 27 27 20 0 34 -7 41 -21 9 -16 17 -19 38 -14 40 10 43
17 22 53 -37 61 -131 72 -181 23z"/>
<path d="M6360 2235 c0 -34 1 -35 40 -35 l40 0 0 -155 0 -155 40 0 40 0 0 155
0 155 40 0 c39 0 40 1 40 35 l0 35 -120 0 -120 0 0 -35z"/>
<path d="M6680 2080 l0 -191 38 3 37 3 0 185 0 185 -37 3 -38 3 0 -191z"/>
<path d="M6830 2235 c0 -34 1 -35 40 -35 l40 0 0 -155 0 -155 40 0 40 0 0 155
0 155 40 0 c39 0 40 1 40 35 l0 35 -120 0 -120 0 0 -35z"/>
<path d="M7150 2111 c0 -155 1 -161 24 -188 22 -26 30 -28 96 -28 66 0 74 2
96 28 23 27 24 33 24 188 l0 160 -37 -3 -38 -3 -5 -150 -5 -150 -35 0 -35 0
-5 150 -5 150 -37 3 -38 3 0 -160z"/>
<path d="M7470 2235 c0 -34 1 -35 40 -35 l40 0 0 -155 0 -155 40 0 40 0 0 155
0 155 40 0 c39 0 40 1 40 35 l0 35 -120 0 -120 0 0 -35z"/>
<path d="M7780 2080 l0 -190 105 0 105 0 0 35 0 35 -65 0 -65 0 0 44 0 45 48
3 c45 3 47 4 47 33 0 29 -2 30 -47 33 l-48 3 0 40 0 39 60 0 60 0 0 35 0 35
-100 0 -100 0 0 -190z"/>
<path d="M8271 2254 c-37 -26 -51 -74 -51 -174 0 -140 31 -190 117 -190 102 0
123 32 123 189 0 122 -10 155 -51 177 -37 19 -109 18 -138 -2z m104 -174 l0
-115 -29 -3 c-16 -2 -32 2 -37 10 -5 7 -9 56 -9 109 0 103 8 122 50 117 l25
-3 0 -115z"/>
<path d="M8545 2258 c-3 -8 -4 -92 -3 -188 l3 -175 38 -3 37 -3 0 80 0 81 45
0 c45 0 45 0 45 35 0 35 0 35 -45 35 l-45 0 0 40 0 40 61 0 60 0 -3 33 -3 32
-93 3 c-69 2 -94 -1 -97 -10z"/>
<path d="M1965 1656 c-54 -23 -72 -102 -35 -149 11 -14 45 -39 75 -56 47 -27
55 -35 55 -60 0 -35 -12 -45 -45 -37 -15 4 -27 16 -31 32 -6 22 -10 24 -38 18
-46 -9 -51 -19 -30 -56 61 -105 224 -73 224 44 0 53 -17 75 -93 123 -46 29
-58 41 -55 58 5 34 54 36 69 4 10 -23 14 -24 43 -15 40 14 38 11 27 42 -21 55
-102 80 -166 52z"/>
<path d="M2280 1653 c-49 -25 -63 -71 -58 -201 3 -100 4 -103 36 -134 28 -29
38 -32 88 -32 51 0 59 3 85 32 22 24 29 42 29 73 l0 40 -37 -3 c-34 -3 -38 -6
-41 -33 -6 -45 -37 -59 -66 -29 -21 20 -23 191 -3 219 21 27 67 13 67 -20 0
-22 4 -25 40 -25 38 0 40 2 40 30 0 76 -103 123 -180 83z"/>
<path d="M3394 1654 c-43 -21 -56 -55 -62 -154 -8 -155 26 -214 123 -214 65 0
99 26 116 86 13 48 6 58 -37 58 -29 0 -34 -3 -34 -24 0 -26 -23 -56 -43 -56
-34 1 -42 20 -45 107 -4 107 7 143 44 143 19 0 28 -7 37 -30 10 -26 16 -30 49
-30 37 0 38 1 32 28 -22 91 -97 127 -180 86z"/>
<path d="M5850 1653 c-24 -12 -39 -29 -47 -53 -13 -38 -17 -178 -7 -229 26
-129 234 -111 234 21 0 39 0 39 -37 36 -35 -3 -38 -6 -41 -35 -2 -18 -7 -33
-12 -33 -5 0 -15 -3 -23 -6 -8 -3 -22 2 -31 11 -22 23 -24 206 -1 225 24 20
65 4 65 -25 0 -22 4 -25 40 -25 38 0 40 2 40 30 0 76 -103 123 -180 83z"/>
<path d="M6854 1660 c-12 -4 -31 -21 -43 -36 -21 -27 -22 -37 -19 -157 3 -126
4 -129 31 -152 60 -52 157 -39 189 25 23 45 25 214 4 265 -23 54 -100 80 -162
55z m84 -72 c8 -8 12 -48 12 -115 0 -92 -2 -103 -20 -113 -14 -8 -26 -8 -40 0
-18 10 -20 21 -20 120 0 77 4 110 13 113 22 9 43 7 55 -5z"/>
<path d="M7435 1661 c-11 -5 -29 -19 -40 -31 -18 -20 -20 -36 -20 -157 0 -135
0 -135 28 -158 60 -52 157 -39 189 25 23 45 25 214 4 265 -23 54 -100 81 -161
56z m83 -73 c8 -8 12 -48 12 -115 0 -92 -2 -103 -20 -113 -14 -8 -26 -8 -40 0
-18 10 -20 21 -20 120 0 77 4 110 13 113 22 9 43 7 55 -5z"/>
<path d="M7754 1661 c-12 -5 -31 -22 -43 -37 -19 -24 -21 -39 -21 -150 0 -116
1 -124 25 -152 31 -37 84 -49 125 -28 17 8 32 10 36 5 3 -5 14 -9 25 -9 18 0
19 8 19 100 l0 101 -62 -3 c-63 -3 -63 -3 -63 -33 0 -23 5 -31 23 -33 16 -2
22 -10 22 -27 0 -27 -24 -45 -51 -38 -17 5 -19 17 -19 118 0 106 1 114 20 120
25 8 50 -10 50 -36 0 -16 8 -19 41 -19 l42 0 -6 37 c-9 52 -45 84 -98 89 -24
2 -54 0 -65 -5z"/>
<path d="M2550 1474 l0 -185 38 3 37 3 3 183 2 182 -40 0 -40 0 0 -186z"/>
<path d="M2712 1478 l3 -183 103 -3 102 -3 0 36 0 35 -65 0 -65 0 0 45 0 45
51 0 50 0 -3 33 c-3 31 -5 32 -50 35 -47 3 -48 4 -48 37 l0 34 63 3 c62 3 62
3 65 36 l3 32 -106 0 -105 0 2 -182z"/>
<path d="M3000 1474 l0 -185 38 3 37 3 5 99 5 100 45 -102 45 -102 37 0 38 0
0 185 0 185 -35 0 -35 0 -1 -97 0 -98 -46 98 -46 97 -43 0 -44 0 0 -186z"/>
<path d="M3660 1475 l0 -185 100 0 100 0 0 35 0 35 -60 0 -60 0 0 45 0 45 45
0 c45 0 45 0 45 35 0 35 0 35 -45 35 -45 0 -45 0 -45 35 l0 34 58 3 c56 3 57
3 60 36 l3 32 -100 0 -101 0 0 -185z"/>
<path d="M4165 1648 c-9 -26 -85 -337 -85 -348 0 -7 15 -10 37 -8 32 3 38 7
45 36 9 32 10 33 55 30 43 -3 47 -5 55 -35 8 -29 13 -33 43 -33 19 0 35 5 35
11 0 6 -19 89 -42 185 l-42 174 -48 0 c-30 0 -50 -5 -53 -12z m75 -195 c0 -7
-12 -13 -26 -13 -22 0 -25 4 -21 23 3 12 9 40 13 62 l7 40 14 -50 c7 -27 13
-56 13 -62z"/>
<path d="M4430 1475 l0 -185 35 0 34 0 3 106 3 107 46 -104 46 -104 39 0 39 0
3 183 2 182 -40 0 -40 0 -1 -92 0 -93 -44 93 -44 92 -40 0 -41 0 0 -185z"/>
<path d="M4762 1478 l3 -183 72 -3 c130 -5 163 32 163 185 0 99 -18 149 -60
170 -14 7 -60 13 -103 13 l-77 0 2 -182z m148 93 c5 -11 10 -56 10 -100 0 -87
-12 -111 -56 -111 l-24 0 0 115 0 115 30 0 c19 0 33 -7 40 -19z"/>
<path d="M5200 1625 c0 -34 1 -35 40 -35 l40 0 0 -150 0 -150 40 0 40 0 0 150
0 150 40 0 c39 0 40 1 40 35 l0 35 -120 0 -120 0 0 -35z"/>
<path d="M5510 1475 l0 -185 105 0 105 0 0 35 0 35 -65 0 -65 0 0 45 0 45 45
0 c45 0 45 0 45 35 0 35 0 35 -45 35 -45 0 -45 0 -45 35 l0 35 60 0 60 0 0 35
0 35 -100 0 -100 0 0 -185z"/>
<path d="M6112 1478 l3 -183 38 -3 37 -3 0 80 0 81 45 0 44 0 3 -77 3 -78 38
-3 37 -3 0 185 0 186 -40 0 -40 0 0 -70 0 -70 -45 0 -45 0 0 70 0 70 -40 0
-40 0 2 -182z"/>
<path d="M6452 1478 l3 -183 38 -3 37 -3 1 103 1 103 48 -102 c49 -102 49
-103 84 -103 l36 0 0 185 0 185 -35 0 -34 0 -3 -96 -3 -95 -41 93 -40 93 -47
3 -47 3 2 -183z"/>
<path d="M7110 1475 l0 -185 95 0 95 0 0 35 0 35 -55 0 -55 0 0 150 0 150 -40
0 -40 0 0 -185z"/>
<path d="M7980 1656 c0 -3 23 -54 50 -114 45 -99 50 -116 50 -181 l0 -72 38 3
37 3 5 85 c4 73 11 98 48 176 23 50 42 94 42 97 0 4 -17 7 -39 7 -38 0 -39 -1
-61 -57 -13 -32 -26 -62 -30 -66 -4 -5 -19 20 -33 55 -24 62 -25 63 -66 66
-22 2 -41 1 -41 -2z"/>
<path d="M3724 911 c-32 -20 -62 -81 -49 -101 3 -5 22 -10 41 -10 26 0 34 4
34 18 0 43 70 60 90 22 17 -32 -10 -77 -94 -160 -64 -63 -76 -80 -76 -107 l0
-33 125 0 125 0 0 35 0 35 -72 0 -72 0 55 58 c76 78 89 99 89 149 0 33 -7 50
-28 74 -24 27 -37 33 -83 36 -41 3 -61 0 -85 -16z"/>
<path d="M4534 911 c-17 -11 -36 -34 -43 -52 -16 -46 -14 -212 3 -254 37 -88
195 -88 232 0 9 22 14 70 14 131 0 110 -16 156 -61 179 -39 21 -108 19 -145
-4z m114 -63 c13 -13 17 -192 6 -222 -8 -22 -80 -22 -88 0 -11 30 -7 209 6
222 15 15 61 15 76 0z"/>
<path d="M5348 914 c-46 -25 -58 -61 -58 -179 0 -119 12 -155 60 -180 37 -19
103 -19 139 0 49 25 63 72 59 197 l-3 110 -37 34 c-32 29 -45 34 -85 34 -27
-1 -60 -7 -75 -16z m110 -66 c13 -13 17 -192 6 -222 -8 -22 -80 -22 -88 0 -3
9 -6 58 -6 109 0 51 3 100 6 109 7 19 64 22 82 4z"/>
<path d="M6094 916 c-3 -8 -4 -23 -2 -33 3 -15 15 -18 84 -21 l81 -3 -48 -151
c-27 -84 -49 -155 -49 -160 0 -4 17 -8 39 -8 l38 0 52 175 c29 96 51 182 49
192 -3 16 -17 18 -121 21 -96 2 -118 0 -123 -12z"/>
</g>
</svg>
